**ABCDEFGHIJKLMNOPQRSTUVWXYZabcdefghijklmnopqrstuvwxyz**************************
**PARASOLID !"#$%&'()*+,-./:;<=>?@[\]^_`{|}~0123456789**************************
**PART1;
MC=;
MC_MODEL=;
MC_ID=unknown;
OS=Windows;
OS_RELEASE=;
FRU=;
APPL=Autodesk Inventor 2017;
SITE=unknown;
USER=unknown;
FORMAT=text;
GUISE=transmit;
KEY=collar_E;
FILE=C:\Users\krosie\Google Drive\HERA\hera-cad\feed\collar_E.x_t;
DATE=2017-Apr-11 17:16:31;
**PART2;
SCH=SCH_2800197_28002;
USFLD_SIZE=0;
**PART3;
**END_OF_HEADER*****************************************************************
T51 : TRANSMIT FILE created by modeller version 280019717 SCH_2800197_280020 12
 1 238 2 3 0 0 0 0 1e3 1e-8 0 0 0 1 0 1 1 4 5 6 7 8 9 10 0 0 0 0 0 0 0 81 1 2 23
8 11 1 12 0 0 0 13 70 3 0 4 T1 0 0 6 20 1 14 14 13 4 94 0 1 0 15 0 0 16 0 50 5 1
48 0 15 17 0 0 +4197716840619645e-33 0 175442650804963e-32 0 -1 0 0 0 1 137 6 23
6 0 1 18 0 19 +20 21 0 ?29 7 115 0 10 22 0 -.0675 0 826636589424463e-32 19 8 1 0
 1 16 0 23 V0 16 9 82 0 ?24 0 25 26 0 0 1 18 10 83 0 24 0 27 7 ?1 17 24 0 28 24
 24 10 29 9 0 29 +18 27 74 0 30 10 31 22 ?1 17 30 0 32 30 30 27 33 25 0 33 +18 3
1 69 0 34 27 35 36 ?1 29 22 114 0 27 36 7 .0675 .006 -826636589424463e-32 29 36
 113 0 31 37 22 .045085 0 -552132009395584e-32 29 37 112 0 35 38 36 .045085 .04
 -552132009395584e-32 18 35 64 0 39 31 40 37 ?1 29 38 111 0 40 41 37 .00305 .027
 -.0449817154519478 18 40 60 0 42 35 43 38 1e-6 1 29 41 110 0 43 44 38 .03743030
828718985 .027 .02513223520751645 18 43 55 0 45 40 46 41 1e-6 1 29 44 109 0 46 4
7 41 .050485 .04 -618262936549541e-32 18 46 50 0 48 43 49 44 ?1 29 47 108 0 49 5
0 44 -30913146827477e-31 .02395 -.050485 18 49 46 0 51 46 52 47 1e-6 1 29 50 107
 0 52 53 47 -30913146827477e-31 .03005 -.050485 18 52 45 0 54 49 55 50 1e-6 1 29
 53 106 0 55 56 50 .0437212925100574 .03005 .0252425 18 55 41 0 57 52 58 53 1e-6
 1 29 56 105 0 58 59 53 .0437212925100574 .02395 .0252425 18 58 40 0 60 55 61 56
 1e-6 1 29 59 104 0 61 62 56 .050485 .006 -618262936549541e-32 18 61 36 0 63 58
 64 59 ?1 29 62 103 0 64 65 59 -.0404803082871898 .027 .01984948024443135 18 64
 32 0 66 61 67 62 1e-6 1 29 65 102 0 67 68 62 -.0437212925100574 .02395 .0252425
 18 67 28 0 69 64 70 65 1e-6 1 29 68 101 0 70 71 65 -.0437212925100574 .03005 .0
252425 18 70 27 0 72 67 73 68 1e-6 1 29 71 100 0 73 74 68 -.0486615242270663 .00
6 .03 18 73 23 0 75 70 76 71 ?1 29 74 99 0 76 77 71 -.0552615242270663 0 .03 18
 76 20 0 78 73 79 74 ?1 29 77 98 0 79 80 74 .0033 .006 -.057 18 79 16 0 81 76 82
 77 ?1 29 80 97 0 82 83 77 -.0033 0 -.057 18 82 13 0 84 79 85 80 ?1 29 83 96 0 8
5 86 80 .052663448015713 .006 .0285 18 85 9 0 87 82 88 83 ?1 29 86 95 0 88 0 83
 .046063448015713 0 .0285 18 88 6 0 89 85 0 86 ?1 17 89 0 90 89 89 88 91 92 0 91
 +15 90 89 0 89 15 28 17 91 0 93 91 91 88 89 92 0 0 -16 92 5 0 ?89 94 0 95 0 0 1
 16 94 8 0 ?87 96 92 97 0 0 1 31 95 116 0 92 0 97 0 +.049363448015713 0 .0285 0
 1 0 1 0 0 .0033 31 97 117 0 94 95 98 0 +.049363448015713 .006 .0285 0 -1 0 1 0
 0 .0033 31 98 118 0 96 97 99 0 +0 0 -.057 0 1 0 1 0 0 .0033 16 96 12 0 ?84 100
 94 98 0 0 1 31 99 119 0 100 98 101 0 +0 .006 -.057 0 -1 0 1 0 0 .0033 16 100 15
 0 ?81 102 96 99 0 0 1 31 101 120 0 102 99 103 0 +-.0519615242270663 0 .03 0 1 0
 1 0 0 .0033 16 102 19 0 ?78 104 100 101 0 0 1 31 103 121 0 104 101 105 0 +-.051
9615242270663 .006 .03 0 -1 0 1 0 0 .0033 16 104 22 0 ?75 106 102 103 0 0 1 31 1
05 125 0 107 103 108 0 +0 .006 0 0 1 0 -1 0 0 .050485 16 107 35 0 ?63 109 110 10
5 0 0 1 31 108 130 0 111 105 112 0 +0 .04 0 0 1 0 -1 0 0 .050485 16 111 49 0 ?48
 113 114 108 0 0 1 31 112 133 0 115 108 116 0 +0 .04 0 0 -1 0 -1 0 0 .045085 16
 115 63 0 ?39 117 118 112 0 0 1 31 116 134 0 117 112 119 0 +0 0 0 0 1 0 -1 0 0 .
045085 16 117 68 0 ?34 25 115 116 0 0 1 31 119 135 0 25 116 26 0 +0 .006 0 0 -1
 0 1 0 0 .0675 16 25 73 0 ?30 9 117 119 0 0 1 31 26 136 0 9 119 120 0 +0 0 0 0 -
1 0 1 0 0 .0675 133 120 187 0 121 26 122 0 +122 -.0437212925100574 .03005 .02524
25 -.0437212925100574 .02395 .0252425 0 1 17 121 0 123 72 72 67 124 106 120 0 +1
37 122 188 0 1 120 125 126 +127 128 0 ?133 125 189 0 124 122 129 0 +129 -.043721
2925100574 .02395 .0252425 -.0437212925100574 .03005 .0252425 0 1 141 126 120 12
6 126 122 51 127 141 0 130 131 132 133 +0 .04 0 0 -1 0 .050485 -1 0 0 134 128 0
 0 0 0 0 0 +134 135 136 134 2 33 2 17 5 FFF1 136 137 138 135 135 2 0 45 66 136 5
.75958653158129 .00995 5.75380842103743 .00995 5.74797065536057 .010007743159797
56 5.74196762562661 .0100671209978927 5.73646247086959 .01018222115215846 5.7309
5982699799 .01029726880957138 5.72587983658896 .01046961130415412 5.720943519974
5 .0106370795572189 5.7168543824254 .01084332468348404 5.71276610746059 .0110495
2630331264 5.70944390072692 .01129864156665726 5.70602673918915 .011554877004310
3 5.70374332853318 .01183268631957748 5.70146081935096 .01211038595776944 5.7002
8159856142 .01241358681078142 5.69913675832829 .01270794774668782 5.699135736412
97 .013 5.69913471683941 .01329138300300224 5.70028159856142 .01358641318921856
 5.70145933348004 .01388938022207238 5.70374332853318 .01416731368042252 5.70602
523909437 .0144449934823308 5.70944390072692 .01470135843334274 5.7127648955891
 .01495039936709446 5.7168543824254 .01515667531651595 5.72094204656982 .0153628
59328363 5.72587983658896 .0155303886958459 5.73095810422463 .0157026841886907 5
.73646247086959 .01581777884784155 5.74196574926053 .01593285075192625 5.7479706
5536057 .01599225684020245 5.75380746876751 .01605 5.75958653158129 .01605 127 1
7 137 3 2 2 2 2 2 2 2 2 2 2 2 2 2 2 2 3 128 17 138 0 .0625 .125 .1875 .25 .3125
 .375 .4375 .5 .5625 .625 .6875 .75 .8125 .875 .9375 1 14 130 33 139 ?140 141 14
2 4 127 +0 0 140 141 23 51 131 140 0 140 143 127 144 +.125209166555204 .027 -.07
22895460156558 .866025403784439 0 -.5 .00305 .5 0 .866025403784439 51 132 142 0
 141 127 20 145 +-.125209166555204 .027 -.0722895460156558 -.866025403784439 0 -
.5 .00305 .5 0 -.866025403784439 141 133 122 146 147 127 141 146 148 149 133 127
 141 147 150 133 151 127 137 150 195 0 1 152 153 154 +127 155 0 ?141 151 156 147
 157 127 137 156 205 0 1 158 159 160 +127 161 0 ?141 157 162 151 149 127 137 162
 212 0 1 163 164 165 +127 166 0 ?141 149 167 157 146 127 137 167 217 0 1 168 169
 170 +127 171 0 ?133 168 216 0 172 173 167 0 +167 -3091314682747705e-33 .03005 -
.050485 -3091314682747705e-33 .02395 -.050485 0 1 133 169 218 0 174 167 175 0 +1
75 -233307461705562e-32 .02395 -.050485 -233307461705562e-32 .03005 -.050485 0 1
 141 170 168 170 170 167 134 171 0 0 0 0 0 0 +176 177 136 176 2 33 2 17 5 FFF1 1
78 179 180 135 177 2 0 45 66 178 1.570796326794895 .00995 1.56501821625431 .0099
5 1.55918045057418 .01000774315979756 1.553177420844225 .0100671209978198 1.5476
722660832 .01018222115215848 1.542169622213285 .01029726880952542 1.537089631802
57 .01046961130415412 1.53215331518794 .01063707955721362 1.52806417763901 .0108
4332468348402 1.523975902671975 .0110495263034381 1.52065369594053 .011298641566
65726 1.517236534400075 .01155487700455344 1.51495312374679 .01183268631957748 1
.512670614563055 .0121103859580365 1.51149139377503 .01241358681078142 1.5103465
53541835 .01270794774682262 1.51034553162658 .013 1.510344512053085 .01329138300
290022 1.51149139377503 .01358641318921856 1.51266912869359 .0138893802221793 1.
51495312374679 .01416731368042254 1.517235034308615 .01444499348229394 1.5206536
9594053 .01470135843334274 1.52397469080136 .01495039936707566 1.52806417763901
 .01515667531651595 1.53215184178988 .01536285932863965 1.53708963180257 .015530
3886958459 1.542167899440595 .01570268418871155 1.5476722660832 .015817778847841
55 1.55317554447218 .01593285075191395 1.55918045057418 .01599225684020245 1.565
01726398181 .01605 1.570796326794895 .01605 127 17 179 3 2 2 2 2 2 2 2 2 2 2 2 2
 2 2 2 3 128 17 180 0 .0625 .125 .1875 .25 .3125 .375 .4375 .5 .5625 .625 .6875
 .75 .8125 .875 .9375 1 17 174 0 181 51 51 52 172 182 169 0 -137 175 219 0 1 169
 183 184 +20 185 0 ?133 183 223 0 54 175 148 0 +148 -3091314682747705e-33 .02395
 -.050485 -3091314682747705e-33 .03005 -.050485 0 1 141 184 169 184 184 175 51 2
0 143 0 186 132 187 188 +979791481655087e-32 .027 .1445790920313116 612323399573
677e-31 0 1 .00305 -1 0 612323399573677e-31 134 185 0 0 0 0 0 0 +189 190 136 189
 2 33 2 17 5 FFF1 191 192 193 135 190 2 0 45 66 191 1.570796326794895 -.19506409
20313115 1.477688596719598 -.1950640920313115 1.37727206716173 -.195060602070318
 1.279431544588008 -.19505720163805 1.17805121695372 -.1950505949080375 1.089665
118718792 -.1950448349829955 .978855177577567 -.195035382706672 .911980230634459
 -.1950296781600305 .785397993644076 -.1950180053167985 .658487303218006 -.19500
63021850715 .591940853479745 -.19500062161266 .481123096849415 -.194991161930085
5 .392744937132923 -.194985394675212 .291380984032252 -.1949787800121055 .193524
206764088 -.1949753727681495 .0931102059129239 -.1949718764850405 0 -.1949718764
850405 -.0930953783095646 -.1949718764850405 -.1935242067640885 -.19497537276814
95 -.291349397883066 -.1949787784094245 -.3927449371329195 -.194985394675212 -.4
81091418853125 -.1949911594633755 -.591940853479744 -.19500062161266 -.658466614
604222 -.195006300276563 -.785397993644077 -.1950180053167985 -.911959333944566
 -.195029676233728 -.978855177577569 -.195035382706672 -1.089633438116506 -.1950
44832518682 -1.178051216953718 -.1950505949080375 -1.279399950522042 -.195057200
0373585 -1.37727206716173 -.195060602070318 -1.477673760336298 -.195064092031311
5 -1.570796326794895 -.1950640920313115 127 17 192 3 2 2 2 2 2 2 2 2 2 2 2 2 2 2
 2 3 128 17 193 0 .0625 .125 .1875 .25 .3125 .375 .4375 .5 .5625 .625 .6875 .75
 .8125 .875 .9375 1 14 186 56 194 ?141 195 196 4 20 -0 0 141 195 23 51 187 144 0
 195 20 197 198 +0 .04 0 0 1 0 .045085 -1 0 0 141 188 175 199 200 20 141 199 6 2
00 188 20 141 200 201 188 199 20 137 201 226 0 1 202 203 204 +20 205 0 ?133 202
 225 0 51 148 201 0 +201 -1586040069575735e-33 .03005 -.050485 -233307461705562e
-32 .02395 -.050485 0 1 133 203 228 0 45 201 206 0 +206 .0374303082871898 .027 .
02513223520751645 .0374303082871898 .027 .02513223520751645 0 1 141 204 202 204
 204 201 134 205 0 0 0 0 0 0 +207 208 136 207 2 33 2 17 5 FFF1 209 210 211 135 2
08 2 0 45 66 209 4.71238898038469 -.1950640920313115 4.61928124777653 -.19506409
20313115 4.51886472075152 -.195060602070318 4.421024195356675 -.1950572016378665
 4.31964387054351 -.1950505949080375 4.2312577626478 -.1950448349823655 4.120447
83116736 -.195035382706672 4.053572867170635 -.1950296781584585 3.92699064723387
 -.1950180053167985 3.800079965400895 -.1950063021858635 3.73353350706954 -.1950
0062161266 3.6227157552769 -.1949911619304015 3.534337590722715 -.19498539467521
2 3.432973637613425 -.194978780012105 3.33511686035388 -.1949753727681495 3.2347
1108546261 -.194971876771458 3.141592653589795 -.1949718764850405 3.048505499701
55 -.1949718761987195 2.948068446825705 -.1949753727681495 2.85024325859164 -.19
4978778409324 2.748847716456875 -.194985394675212 2.660501238520285 -.1949911594
63052 2.549651800110055 -.19500062161266 2.48312603905114 -.1950063002765575 2.3
5619465994572 -.1950180053167985 2.22963331961538 -.19502967623373 2.16273747601
2225 -.195035382706672 2.05195921550289 -.1950448325186805 1.963541436636075 -.1
950505949080375 1.862192700243905 -.195057200037542 1.764320586428065 -.19506060
2070318 1.66391889072492 -.1950640920313115 1.570796326794895 -.1950640920313115
 127 17 210 3 2 2 2 2 2 2 2 2 2 2 2 2 2 2 2 3 128 17 211 0 .0625 .125 .1875 .25
 .3125 .375 .4375 .5 .5625 .625 .6875 .75 .8125 .875 .9375 1 17 45 0 212 45 45 4
3 213 113 203 213 +137 206 229 0 1 203 214 215 +187 216 0 ?133 214 230 0 213 206
 217 0 +217 .03743030828718985 .027 .0251322352075164 .03743030828718985 .027 .0
251322352075164 0 1 141 215 203 215 215 206 134 216 0 0 0 0 0 0 +218 219 136 218
 2 65 2 35 5 TTF1 220 221 222 135 219 2 0 45 130 220 2.55029217670028 -.013 2.55
029217670028 -.01329165388655432 2.551576001064705 -.013586440464621 2.552895450
727275 -.01388940718011464 2.555454161390195 -.01416734646052294 2.5580103683011
55 -.0144450137715256 2.561839780423695 -.01470137841559748 2.565559541763265 -.
0149504023548694 2.570139833108355 -.01515667510654335 2.57471794657472 -.015362
8497777669 2.580247730436495 -.0155303752977277 2.58593490991834 -.0157026691384
3115 2.592098841993605 -.0158177651522049 2.598261758287495 -.01593284219880215
 2.60498603779555 -.0159922513958913 2.61152183234486 -.01604999532311045 2.6179
93877991495 -.01605 2.62446379874906 -.01605000467535405 2.63100171818744 -.0159
922513958913 2.637723896660035 -.0159328704482389 2.643888913989385 -.0158177651
522049 2.650050916928425 -.0157027161370003 2.65574002554649 -.0155303752977277
 2.66126815941445 -.0153629108855719 2.665847922874635 -.01515667510654335 2.670
42685696365 -.0149504766757338 2.674147975559295 -.01470137841559746 2.677975707
395875 -.0144451432765515 2.680533594592795 -.01416734646052294 2.68309064075349
5 -.0138896409844034 2.684411754918285 -.013586440464621 2.68569443437405 -.0132
9206085075698 2.68569557928271 -.013 2.68569672156784 -.01270860840036198 2.6844
11754918285 -.012413559535379 2.683092305256345 -.01211059282002256 2.6805335945
92795 -.01183265353947706 2.67797738768375 -.01155498622861388 2.674147975559295
 -.01129862158440252 2.670428214219715 -.01104959764511914 2.665847922874635 -.0
1084332489345666 2.661269809411095 -.01063715022237136 2.65574002554649 -.010469
62470227232 2.650052846067115 -.01029733086158936 2.643888913989385 -.0101822348
4779508 2.637725997691775 -.01006715780115386 2.63100171818744 -.010007748604108
7 2.624465923635665 -.00995000467687857 2.617993877991495 -.00995 2.611523957235
29 -.00994999532465694 2.60498603779555 -.0100077486041087 2.598263859326865 -.0
100671295517029 2.592098841993605 -.01018223484779508 2.58593683905775 -.0102972
8386292536 2.580247730436495 -.0104696247022723 2.57471959656422 -.0106370891145
3748 2.570139833108355 -.01084332489345664 2.56556089901172 -.0110495233246947 2
.561839780423695 -.01129862158440252 2.5580120485851 -.01155485672366744 2.55545
4161390195 -.01183265353947706 2.552897115229495 -.0121103590155966 2.5515760010
64705 -.012413559535379 2.55029217670028 -.01270820190995728 2.55029217670028 -.
013 127 35 221 1 2 2 2 2 2 2 2 2 2 2 2 2 2 2 2 2 2 2 2 2 2 2 2 2 2 2 2 2 2 2 2 2
 2 1 128 35 222 -.03125 0 .03125 .0625 .09375 .125 .15625 .1875 .21875 .25 .2812
5 .3125 .34375 .375 .40625 .4375 .46875 .5 .53125 .5625 .59375 .625 .65625 .6875
 .71875 .75 .78125 .8125 .84375 .875 .90625 .9375 .96875 1 1.03125 17 213 0 223
 213 213 43 45 113 214 0 -137 217 231 0 1 214 224 225 +132 226 0 ?133 224 233 0
 42 217 227 0 +227 .00305 .027 -.0449817154519478 .00305 .027 -.0449817154519478
 0 1 141 225 214 225 225 217 134 226 0 0 0 0 0 0 +228 229 136 228 2 65 2 33 5 FF
F1 230 231 232 135 229 2 0 45 130 230 3.141592653589795 -.1895608074832595 3.234
690879193065 -.1895608074832595 3.335125980680125 -.1895647246996775 3.432950173
73579 -.1895685400842335 3.534349224061885 -.189575952174647 3.62268966750252 -.
1895824097041 3.73354134371299 -.189593008843129 3.800017294059375 -.18959936497
47085 3.92699054987451 -.1896124793402315 4.05350489992986 -.189625546307916 4.1
20439824916765 -.189631940968284 4.23121030147962 -.1896425234792315 4.319632138
10415 -.1896489769374545 4.420980529914385 -.1896563738389155 4.51885557011299 -
.189660183697781 4.61925219496983 -.189664091711208 4.71238898038469 -.189664092
0313115 4.8054944865189 -.189664092351308 4.90592239065639 -.189660183697781 5.0
0376584933771 -.189656375630858 5.10514582266522 -.1896489769374545 5.1935359930
7188 -.1896425262376835 5.30433813585262 -.189631940968284 5.37125209113848 -.18
96255484723855 5.49778741089487 -.1896124793402315 5.62474004884519 -.1895993671
05593 5.69123661705639 -.189593008843129 5.80205661097858 -.1895824124676075 5.8
9042873670749 -.189575952174647 5.99179620223085 -.189568541879619 6.08965198008
925 -.1895647246996775 6.19007225513113 -.1895608074832595 6.28318530717959 -.18
95608074832595 6.37628353277917 -.1895608074832595 6.47671863426992 -.1895647246
996775 6.57454282729622 -.189568540084232 6.67594187765168 -.189575952174647 6.7
6428232104477 -.1895824097040955 6.87513399730278 -.189593008843129 6.9416099174
4839 -.1895993649718205 7.0685832034643 -.1896124793402315 7.19509758318352 -.18
9625546310749 7.26203247850656 -.189631940968284 7.37280295498262 -.189642523479
2245 7.46122479169395 -.1896489769374545 7.56257318094201 -.1896563738387295 7.6
6044822370278 -.189660183697781 7.76084484408507 -.189664091711122 7.85398163397
448 -.1896640920313115 7.9470871379273 -.1896640923513935 8.04751504424618 -.189
660183697781 8.14535850288909 -.189656375630859 8.24673847625502 -.1896489769374
545 8.33512864659498 -.18964252623769 8.44593078944241 -.189631940968284 8.51284
47599654 -.18962554847093 8.63938006448467 -.1896124793402315 8.76633270205967 -
.1895993671055135 8.83282927064618 -.189593008843129 8.94364927651248 -.18958241
2466658 9.03202139029728 -.189575952174647 9.13338885838621 -.189568541879519 9.
23124463367905 -.1895647246996775 9.33166490872304 -.1895608074832595 9.42477796
076938 -.1895608074832595 127 33 231 3 2 2 2 2 2 2 2 2 2 2 2 2 2 2 2 2 2 2 2 2 2
 2 2 2 2 2 2 2 2 2 2 3 128 33 232 0 .03125 .0625 .09375 .125 .15625 .1875 .21875
 .25 .28125 .3125 .34375 .375 .40625 .4375 .46875 .5 .53125 .5625 .59375 .625 .6
5625 .6875 .71875 .75 .78125 .8125 .84375 .875 .90625 .9375 .96875 1 17 42 0 233
 42 42 40 234 118 224 234 +137 227 234 0 1 224 18 235 +187 236 0 ?133 18 235 0 2
34 227 6 0 +6 .00305 .027 -.0449817154519478 .00305 .027 -.0449817154519478 0 1
 141 235 224 235 235 227 134 236 0 0 0 0 0 0 +237 238 136 237 2 65 2 35 5 TTF1 2
39 240 241 135 238 2 0 45 130 239 4.64468727909347 -.013 4.64468727909347 -.0132
9165388666006 4.6459711034579 -.013586440464621 4.64729055312137 -.0138894071802
122 4.64984926378339 -.01416734646052294 4.65240547069435 -.01444501377152568 4.
65623488281689 -.01470137841559748 4.65995464415596 -.01495040235483582 4.664534
93550155 -.01515667510654335 4.6691130489636 -.0153628497775835 4.67464283282969
 -.0155303752977277 4.68033001231218 -.01570266913850485 4.6864939443868 -.01581
77651522049 4.69265686068666 -.015932842198852 4.69938114018874 -.01599225139589
13 4.70591693474022 -.01604999532313245 4.71238898038469 -.01605 4.7188589011407
6 -.0160500046753321 4.72539682058064 -.0159922513958913 4.73211899905106 -.0159
328704482943 4.73828401638258 -.0158177651522049 4.74444601932003 -.015702716137
01515 4.75013512793969 -.0155303752977277 4.75566326180694 -.01536291088562565 4
.76024302526783 -.01515667510654335 4.76482195935785 -.0149504766756666 4.768543
07795249 -.01470137841559748 4.77237080978907 -.01444514327655168 4.774928696985
99 -.01416734646052294 4.77748574314762 -.01388964098430234 4.77880685731148 -.0
13586440464621 4.78008953676737 -.01329206085061836 4.78009068167591 -.013 4.780
09182396091 -.01270860840022694 4.77880685731148 -.012413559535379 4.77748740764
798 -.01211059281977418 4.77492869698599 -.01183265353947706 4.77237249007451 -.
01155498622842826 4.76854307795249 -.01129862158440252 4.76482331661193 -.011049
59764507484 4.76024302526783 -.01084332489345664 4.75566491180429 -.010637150222
37134 4.75013512793969 -.01046962470227232 4.74444794845812 -.01029733086152294
 4.73828401638258 -.01018223484779508 4.73212110008493 -.01006715780117862 4.725
39682058064 -.0100077486041087 4.71886102602914 -.00995000467685659 4.7123889803
8469 -.00995 4.70591905962738 -.0099499953246789 4.69938114018874 -.010007748604
1087 4.69265896171941 -.01006712955169612 4.6864939443868 -.01018223484779506 4.
68033194144836 -.01029728386299268 4.67464283282969 -.0104696247022723 4.6691146
9896098 -.01063708911444026 4.66453493550155 -.01084332489345664 4.6599560014115
3 -.0110495233243334 4.65623488281689 -.01129862158440252 4.65240715098018 -.011
5548567234569 4.64984926378339 -.01183265353947706 4.64729221762178 -.0121103590
1570112 4.6459711034579 -.012413559535379 4.64468727909347 -.01270820191005932 4
.64468727909347 -.013 127 35 240 1 2 2 2 2 2 2 2 2 2 2 2 2 2 2 2 2 2 2 2 2 2 2 2
 2 2 2 2 2 2 2 2 2 2 1 128 35 241 -.03125 0 .03125 .0625 .09375 .125 .15625 .187
5 .21875 .25 .28125 .3125 .34375 .375 .40625 .4375 .46875 .5 .53125 .5625 .59375
 .625 .65625 .6875 .71875 .75 .78125 .8125 .84375 .875 .90625 .9375 .96875 1 1.0
3125 17 234 0 196 234 234 40 42 118 18 0 -15 196 58 0 234 186 181 16 118 59 0 1e
-6 42 115 113 0 0 0 1 16 113 54 0 1e-6 45 118 111 0 0 0 1 15 181 57 0 174 186 0
 15 233 70 0 42 195 242 14 195 61 243 ?186 244 233 4 187 -0 0 186 244 23 15 242
 67 0 245 195 212 17 245 0 242 245 245 31 34 117 0 0 -15 212 66 0 45 195 246 15
 246 65 0 66 195 247 17 66 0 246 66 66 64 248 110 249 248 +15 247 62 0 250 195 0
 17 250 0 247 250 250 35 39 115 0 0 -17 39 0 251 39 39 35 250 115 0 250 +15 251
 86 0 39 252 253 14 252 84 254 ?255 15 251 4 17 +0 0 255 15 23 15 253 85 0 48 25
2 0 17 48 0 253 48 48 46 256 111 0 256 +17 256 0 142 256 256 46 48 111 0 0 -15 1
42 48 0 256 130 257 15 257 43 0 172 130 258 17 172 0 257 54 54 49 174 182 168 0
 +15 258 38 0 259 130 123 17 259 0 258 60 60 55 260 109 158 0 +15 123 37 0 72 13
0 261 17 72 0 123 121 121 70 69 262 152 124 +15 261 34 0 63 130 0 17 63 0 261 63
 63 61 263 107 0 263 +17 263 0 264 263 263 61 63 107 0 0 -15 264 78 0 263 244 26
5 14 244 71 266 ?195 255 264 4 197 +0 0 195 255 23 15 265 77 0 75 244 267 17 75
 0 265 75 75 73 268 104 0 268 +15 267 76 0 81 244 269 17 81 0 267 81 81 79 270 1
00 0 270 +15 269 75 0 87 244 271 17 87 0 269 87 87 85 272 94 0 272 +15 271 72 0
 33 244 0 17 33 0 271 33 33 27 30 25 0 0 -17 272 0 273 272 272 85 87 94 0 0 -15
 273 7 0 272 274 93 14 274 3 275 ?0 276 273 4 277 -0 0 0 276 23 15 93 4 0 91 274
 0 81 1 275 153 278 274 279 0 0 280 281 14 276 10 280 ?274 282 283 4 284 -0 0 27
4 282 23 51 277 137 0 274 0 284 0 +.049363448015713 -.1890640920313115 .0285 0 -
1 0 .0033 1 0 0 13 23 2 0 0 0 0 0 0 8 15 14 15 87 285 ?252 0 286 4 5 +0 0 252 0
 23 81 1 285 186 278 15 287 0 254 0 288 15 286 92 0 34 15 289 17 34 0 286 34 34
 31 245 117 0 245 +15 289 91 0 78 15 290 17 78 0 289 78 78 76 291 102 0 291 +15
 290 90 0 84 15 90 17 84 0 290 84 84 82 292 96 0 292 +17 292 0 293 292 292 82 84
 96 0 0 -15 293 11 0 292 276 0 17 291 0 294 291 291 76 78 102 0 0 -15 294 18 0 2
91 282 0 14 282 17 295 ?276 140 296 4 143 -0 0 276 140 23 81 1 295 159 278 282 2
97 0 280 298 299 14 140 24 298 ?282 130 300 4 131 -0 0 282 130 23 15 296 21 0 26
8 282 294 51 143 139 0 282 284 131 0 +-.0519615242270663 -.1890640920313115 .03
 0 -1 0 .0033 1 0 0 51 284 138 0 276 277 143 0 +0 -.1890640920313115 -.057 0 -1
 0 .0033 1 0 0 17 268 0 296 268 268 73 75 104 0 0 -81 1 298 162 278 140 301 0 29
5 139 302 15 300 30 0 248 140 303 17 248 0 300 248 248 64 66 110 304 0 -15 303 2
5 0 124 140 0 17 124 0 303 69 69 70 121 106 125 0 -17 69 0 303 124 124 67 72 262
 153 121 -16 106 26 0 1e-6 121 262 104 0 0 0 1 16 262 29 0 1e-6 72 110 106 0 0 0
 1 16 110 31 0 1e-6 66 107 262 0 0 0 1 133 153 196 0 69 150 305 0 +305 -.0437212
925100574 .03005 .0252425 -.0437212925100574 .02395 .0252425 0 1 137 305 197 0 1
 153 249 306 +131 307 0 ?133 249 199 0 66 305 308 0 +308 -.0404803082871898 .027
 .01984948024443135 -.0404803082871898 .027 .01984948024443135 0 1 141 306 153 3
06 306 305 134 307 0 0 0 0 0 0 +309 310 136 309 2 33 2 17 5 FFF1 311 312 313 135
 310 2 0 45 66 311 4.71238898038469 -.1950640920313115 4.61928125030587 -.195064
0920313115 4.51886472075152 -.195060602070318 4.421024198149825 -.19505720163804
9 4.319643870543515 -.1950505949080375 4.23125776742606 -.1950448349826765 4.120
447831167365 -.195035382706672 4.05357289275249 -.195029678160699 3.926990647233
865 -.1950180053167985 3.800079939565695 -.1950063021835995 3.733533507069535 -.
19500062161266 3.622715746646825 -.194991161929762 3.534337590722715 -.194985394
675212 3.432973637555955 -.194978780012189 3.33511686035388 -.1949753727681495 3
.234711087995085 -.194971876771458 3.141592653589795 -.1949718764850405 3.048505
50223175 -.1949718761987195 2.948068446825705 -.1949753727681495 2.8502432585416
55 -.1949787784092395 2.74884771645687 -.194985394675212 2.66050123480535 -.1949
91159463371 2.54965180011005 -.19500062161266 2.483126022059695 -.19500630027800
7 2.35619465994572 -.1950180053167985 2.22963334504121 -.1950296762315025 2.1627
37476012225 -.195035382706672 2.0519592165398 -.195044832518689 1.96354143663607
5 -.1950505949080375 1.862192700180125 -.1950572000374585 1.76432058642806 -.195
060602070318 1.66391889325279 -.1950640920313115 1.570796326794895 -.19506409203
13115 127 17 312 3 2 2 2 2 2 2 2 2 2 2 2 2 2 2 2 3 128 17 313 0 .0625 .125 .1875
 .25 .3125 .375 .4375 .5 .5625 .625 .6875 .75 .8125 .875 .9375 1 137 308 200 0 1
 249 304 314 +187 315 0 ?133 304 201 0 248 308 316 0 +316 -.04048030828718985 .0
27 .01984948024443135 -.04048030828718985 .027 .01984948024443135 0 1 141 314 24
9 314 314 308 134 315 0 0 0 0 0 0 +317 318 136 317 2 65 2 35 5 TTF1 319 320 321
 135 318 2 0 45 130 319 .455897074307083 -.013 .455897074307083 -.01329165388651
11 .457180898671508 -.013586440464621 .458500348333023 -.01388940717991642 .4610
59058997 -.01416734646052294 .46361526590537 -.01444501377132764 .4674446780305
 -.01470137841559746 .471164439371568 -.01495040235499366 .47574473071516 -.0151
5667510654335 .48032284418251 -.0153628497777546 .485852628043301 -.015530375297
7277 .491539807524245 -.0157026691384474 .497703739600411 -.0158177651522049 .50
3866655897014 -.01593284219881985 .510590935402353 -.0159922513958913 .517126729
953461 -.01604999532313245 .523598775598299 -.01605 .530068696358879 -.016050004
6753321 .536606615794245 -.0159922513958913 .543328794263865 -.01593287044826035
 .549493811596187 -.01581776515220495 .555655814530416 -.01570271613712425 .5613
44923153296 -.0155303752977277 .566873057024195 -.015362910885504 .5714528204814
37 -.01515667510654335 .576031754574461 -.01495047667548874 .579752873166097 -.0
1470137841559746 .583580605003566 -.01444514327646836 .586138492199598 -.0141673
4646052294 .588695538360315 -.01388964098438832 .590016652525089 -.0135864404646
21 .591299331980916 -.01329206085075314 .591300476889515 -.013 .59130161917458 -
.0127086084003701 .590016652525089 -.012413559535379 .5886972028631 -.0121105928
199882 .586138492199598 -.01183265353947706 .583582285290463 -.01155498622863306
 .579752873166097 -.01129862158440252 .576033111827424 -.01104959764515506 .5714
52820481437 -.01084332489345666 .56687470701686 -.01063715022232942 .56134492315
3296 -.01046962470227232 .555657743674091 -.01029733086160528 .549493811596187 -
.01018223484779506 .543330895302768 -.01006715780121936 .536606615794245 -.01000
77486041087 .530070821244358 -.00995000467686758 .523598775598299 -.00995 .51712
8854836497 -.00994999532466791 .510590935402353 -.0100077486041087 .503868756931
056 -.01006712955176554 .497703739600411 -.01018223484779508 .491541736663343 -.
01029728386293414 .485852628043301 -.01046962470227232 .480324494173356 -.010637
0891144939 .47574473071516 -.01084332489345664 .471165796624566 -.01104952332436
096 .4674446780305 -.01129862158440252 .463616946193876 -.0115548567234624 .4610
59058997 -.01183265353947706 .458502012836489 -.01211035901556686 .4571808986715
09 -.012413559535379 .455897074307083 -.01270820190994408 .455897074307083 -.013
 127 35 320 1 2 2 2 2 2 2 2 2 2 2 2 2 2 2 2 2 2 2 2 2 2 2 2 2 2 2 2 2 2 2 2 2 2
 1 128 35 321 -.03125 0 .03125 .0625 .09375 .125 .15625 .1875 .21875 .25 .28125
 .3125 .34375 .375 .40625 .4375 .46875 .5 .53125 .5625 .59375 .625 .65625 .6875
 .71875 .75 .78125 .8125 .84375 .875 .90625 .9375 .96875 1 1.03125 137 316 202 0
 1 304 158 322 +131 323 0 ?133 158 204 0 259 316 156 0 +156 .0437212925100574 .0
2395 .0252425 .0437212925100574 .03005 .0252425 0 1 141 322 304 322 322 316 134
 323 0 0 0 0 0 0 +324 325 136 324 2 65 2 33 5 FFF1 326 327 328 135 325 2 0 45 13
0 326 3.141592653589795 -.1895608074832595 3.234690879189555 -.1895608074832595
 3.335125980680125 -.1895647246996775 3.432950173721235 -.189568540084233 3.5343
4922406189 -.189575952174647 3.622689667544655 -.1895824097041025 3.733541343712
99 -.189593008843129 3.80001726376688 -.1895993649718125 3.926990549874505 -.189
6124793402315 4.05350492978435 -.189625546310767 4.12043982491676 -.189631940968
284 4.231210301383285 -.189642523479224 4.319632138104155 -.1896489769374545 4.4
2098052990601 -.189656373838916 4.51885557011299 -.189660183697781 4.61925219718
158 -.1896640917112935 4.71238898038469 -.1896640920313115 4.80549449098063 -.18
96640923512225 4.90592239065639 -.189660183697781 5.00376585182851 -.18965637563
06755 5.10514582266523 -.1896489769374545 5.19353598873951 -.1896425262380005 5.
30433813585261 -.189631940968284 5.37125209864552 -.189625548471727 5.4977874108
9487 -.1896124793402315 5.62474003359246 -.1895993671070515 5.69123661705639 -.1
89593008843129 5.80205661098508 -.189582412467607 5.89042873670749 -.18957595217
4647 5.99179619971254 -.189568541879803 6.08965198008926 -.1895647246996775 6.19
007225287771 -.1895608074832595 6.28318530717959 -.1895608074832595 6.3762835327
8199 -.1895608074832595 6.47671863426992 -.1895647246996775 6.5745428298878 -.18
95685400843335 6.67594187765168 -.189575952174647 6.76428232449946 -.18958240970
4425 6.87513399730278 -.189593008843129 6.94160993251081 -.1895993649732615 7.06
85832034643 -.1896124793402315 7.19509757606335 -.1896255463101285 7.26203247850
656 -.189631940968284 7.37280295259937 -.1896425234788985 7.46122479169395 -.189
6489769374545 7.56257318087511 -.189656373838899 7.66044822370278 -.189660183697
781 7.76084485301586 -.1896640917112935 7.85398163397448 -.1896640920313115 7.94
708714232318 -.1896640923512225 8.04751504424618 -.189660183697781 8.14535850294
704 -.189656375630857 8.24673847625502 -.1896489769374545 8.33512864667023 -.189
642526237683 8.44593078944241 -.189631940968284 8.51284475961827 -.1896255484709
63 8.63938006448467 -.1896124793402315 8.76633268726536 -.1895993671070445 8.832
82927064618 -.189593008843129 8.94364926454466 -.1895824124676085 9.032021390297
28 -.189575952174647 9.13338885331335 -.1895685418798025 9.23124463367905 -.1895
647246996775 9.33166490646046 -.1895608074832595 9.42477796076938 -.189560807483
2595 127 33 327 3 2 2 2 2 2 2 2 2 2 2 2 2 2 2 2 2 2 2 2 2 2 2 2 2 2 2 2 2 2 2 2
 3 128 33 328 0 .03125 .0625 .09375 .125 .15625 .1875 .21875 .25 .28125 .3125 .3
4375 .375 .40625 .4375 .46875 .5 .53125 .5625 .59375 .625 .65625 .6875 .71875 .7
5 .78125 .8125 .84375 .875 .90625 .9375 .96875 1 80 1 278 329 330 8015 0 0 0 0 3
 5 0 0 0 FFFFTFFFFFFFFF2 81 2 301 161 329 140 331 298 297 332 333 334 81 1 139 1
65 278 130 332 0 298 335 336 83 1 302 0 81 2 332 164 329 130 337 139 301 338 339
 340 81 1 335 168 278 141 338 0 139 194 341 83 1 336 0 14 141 51 335 ?130 186 22
3 4 132 -0 0 130 186 23 81 2 338 167 329 141 342 335 332 343 344 345 81 1 194 17
1 278 186 343 0 335 243 346 83 1 341 0 81 2 343 170 329 186 347 194 338 348 349
 350 81 1 243 174 278 195 348 0 194 266 351 83 1 346 0 81 2 348 173 329 195 352
 243 343 353 354 355 81 1 266 177 278 244 353 0 243 356 357 83 1 351 0 81 2 353
 176 329 244 358 266 348 359 360 361 81 1 356 180 278 255 359 0 266 254 362 83 1
 357 0 14 255 79 356 ?244 252 363 4 364 +0 0 244 252 23 81 2 359 179 329 255 365
 356 353 366 367 368 81 1 254 183 278 252 366 0 356 285 369 83 1 362 0 81 2 366
 182 329 252 370 254 359 287 371 372 83 1 369 0 80 2 329 373 374 8014 0 0 0 0 3
 5 0 0 0 FFFFTFFFFFFFFF2 1 81 1 370 181 375 252 0 366 365 376 377 81 2 287 185 3
29 15 376 285 366 0 378 379 83 4 371 .898039215686275 0 .898039215686275 .898039
215686275 82 1 372 1 81 1 376 184 375 15 0 287 370 0 380 83 4 378 .8980392156862
75 0 .898039215686275 .898039215686275 82 1 379 1 80 1 375 0 381 8001 0 0 0 0 3
 5 0 0 0 FFFFTFTFFFFFFF2 83 3 380 .898039215686275 .898039215686275 .89803921568
6275 79 15 381 SDL/TYSA_COLOUR81 1 365 178 375 255 0 359 358 370 382 83 3 377 .8
98039215686275 .898039215686275 .898039215686275 81 1 358 175 375 244 0 353 352
 365 383 83 3 382 .898039215686275 .898039215686275 .898039215686275 81 1 352 17
2 375 195 0 348 347 358 384 83 3 383 .898039215686275 .898039215686275 .89803921
5686275 81 1 347 169 375 186 0 343 342 352 385 83 3 384 .898039215686275 .898039
215686275 .898039215686275 81 1 342 166 375 141 0 338 337 347 386 83 3 385 .8980
39215686275 .898039215686275 .898039215686275 81 1 337 163 375 130 0 332 331 342
 387 83 3 386 .898039215686275 .898039215686275 .898039215686275 81 1 331 160 37
5 140 0 301 388 337 389 83 3 387 .898039215686275 .898039215686275 .898039215686
275 81 1 388 157 375 282 0 297 390 331 391 83 3 389 .898039215686275 .8980392156
86275 .898039215686275 81 2 297 158 329 282 388 295 392 301 393 394 81 1 390 154
 375 276 0 392 395 388 396 83 3 391 .898039215686275 .898039215686275 .898039215
686275 81 2 392 155 329 276 390 280 279 297 397 398 81 1 395 151 375 274 0 279 0
 390 399 83 3 396 .898039215686275 .898039215686275 .898039215686275 81 2 279 15
2 329 274 395 275 0 392 400 401 83 3 399 .898039215686275 .898039215686275 .8980
39215686275 83 4 400 .898039215686275 0 .898039215686275 .898039215686275 82 1 4
01 1 81 1 280 156 278 276 392 0 275 295 402 83 4 397 .898039215686275 0 .8980392
15686275 .898039215686275 82 1 398 1 83 1 402 0 83 4 393 .898039215686275 0 .898
039215686275 .898039215686275 82 1 394 1 79 21 374 SDL/TYSA_REFLECTIVITY83 4 367
 .898039215686275 0 .898039215686275 .898039215686275 82 1 368 1 15 363 81 0 29
 255 32 51 364 146 0 255 197 17 0 +0 0 0 0 1 0 .0675 1 0 0 50 197 145 0 244 187
 364 0 +-4197716840619645e-33 .006 -175442650804963e-32 0 1 0 0 0 1 50 17 147 0
 252 364 5 0 +4197716840619645e-33 .04 175442650804963e-32 0 1 0 0 0 1 17 29 0 3
63 29 29 10 24 9 0 0 -15 32 80 0 30 255 0 83 4 360 .898039215686275 0 .898039215
686275 .898039215686275 82 1 361 1 83 4 354 .898039215686275 0 .898039215686275
 .898039215686275 82 1 355 1 83 4 349 .898039215686275 0 .898039215686275 .89803
9215686275 82 1 350 1 83 4 344 .898039215686275 0 .898039215686275 .898039215686
275 82 1 345 1 15 223 53 0 213 141 403 15 403 52 0 57 141 0 17 57 0 403 260 260
 55 60 404 164 259 -17 260 0 403 57 57 58 259 109 159 0 -17 60 0 258 259 259 58
 57 404 163 260 +16 404 42 0 1e-6 60 182 109 0 0 0 1 133 164 213 0 57 162 173 0
 +173 .0437212925100574 .02395 .0252425 .0437212925100574 .03005 .0252425 0 1 13
7 173 214 0 1 164 168 405 +132 406 0 ?141 405 164 405 405 173 134 406 0 0 0 0 0
 0 +407 408 136 407 2 33 2 17 5 FFF1 409 410 411 135 408 2 0 45 66 409 1.5707963
267949 -.1950640920313115 1.477688591652572 -.1950640920313115 1.377272067161732
 -.195060602070318 1.279431538944914 -.1950572016376825 1.17805121695372 -.19505
05949080375 1.08966511392235 -.1950448349826825 .978855177577571 -.1950353827066
72 .911980239024963 -.195029678160688 .785397993644079 -.1950180053167985 .65848
7286174695 -.1950063021836165 .591940853479744 -.19500062161266 .481123093008104
 -.194991161929758 .3927449371329165 -.194985394675212 .2913809839328925 -.19497
87800121875 .193524206764086 -.1949753727681495 .0931102084316461 -.194971876485
0405 0 -.1949718764850405 -.0930953757841836 -.1949718764850405 -.19352420676408
6 -.1949753727681495 -.2913493921748665 -.19497877840914 -.39274493713292 -.1949
85394675212 -.48109141020285 -.1949911594627345 -.591940853479744 -.195000621612
66 -.658466622961382 -.195006300277218 -.78539799364408 -.1950180053167985 -.911
959317282206 -.1950296762323065 -.978855177577575 -.195035382706672 -1.089633438
13762 -.1950448325186835 -1.17805121695372 -.1950505949080375 -1.279399953331842
 -.195057200037541 -1.377272067161732 -.195060602070318 -1.477673762853614 -.195
0640920313115 -1.5707963267949 -.1950640920313115 127 17 410 3 2 2 2 2 2 2 2 2 2
 2 2 2 2 2 2 3 128 17 411 0 .0625 .125 .1875 .25 .3125 .375 .4375 .5 .5625 .625
 .6875 .75 .8125 .875 .9375 1 16 182 44 0 1e-6 172 114 404 0 0 0 1 16 109 39 0 1
e-6 259 404 107 0 0 0 1 16 114 47 0 1e-6 54 111 182 0 0 0 1 17 54 0 257 172 172
 52 51 114 183 174 +17 51 0 181 174 174 49 54 114 202 172 -133 163 211 0 60 412
 162 0 +162 .0437212925100574 .03005 .0252425 .0437212925100574 .02395 .0252425
 0 1 137 412 207 0 1 159 163 413 +132 414 0 ?133 159 206 0 260 156 412 0 +412 .0
437212925100574 .03005 .0252425 .0437212925100574 .02395 .0252425 0 1 141 413 15
9 413 413 412 134 414 0 0 0 0 0 0 +415 416 136 415 2 33 2 17 5 FFF1 417 418 419
 135 416 2 0 45 66 417 4.71238898038469 -.1950640920313115 4.61928124778779 -.19
50640920313115 4.51886472075152 -.195060602070318 4.42102419536923 -.19505720163
7867 4.31964387054351 -.1950505949080375 4.23125776260827 -.195044834982363 4.12
044783116736 -.195035382706672 4.0535728670267 -.1950296781584455 3.926990647233
865 -.1950180053167985 3.800079956967875 -.195006302185085 3.733533507069535 -.1
9500062161266 3.62271575043738 -.1949911619300855 3.53433759072271 -.19498539467
5212 3.43297363478826 -.1949787800119205 3.33511686035388 -.1949753727681495 3.2
3471108047655 -.1949718767713725 3.141592653589795 -.1949718764850405 3.04850549
7248065 -.194971876198805 2.948068446825705 -.1949753727681495 2.85024325859988
 -.1949787784093235 2.74884771645687 -.194985394675212 2.6605012386022 -.1949911
594630465 2.54965180011005 -.19500062161266 2.48312602198841 -.195006300278013 2
.35619465994572 -.1950180053167985 2.22963332823588 -.1950296762330525 2.1627374
7601223 -.195035382706672 2.051959206895485 -.1950448325193185 1.963541436636075
 -.1950505949080375 1.86219269452438 -.1950572000378265 1.764320586428065 -.1950
60602070318 1.663918888204085 -.1950640920313115 1.5707963267949 -.1950640920313
115 127 17 418 3 2 2 2 2 2 2 2 2 2 2 2 2 2 2 2 3 128 17 419 0 .0625 .125 .1875 .
25 .3125 .375 .4375 .5 .5625 .625 .6875 .75 .8125 .875 .9375 1 83 4 339 .8980392
15686275 0 .898039215686275 .898039215686275 82 1 340 1 83 4 333 .89803921568627
5 0 .898039215686275 .898039215686275 82 1 334 1 79 21 330 SDL/TYSA_TRANSLUCENCY
83 1 299 0 83 1 288 0 15 283 14 0 270 276 293 17 270 0 283 270 270 79 81 100 0 0
 -83 1 281 0 133 152 194 0 72 129 150 0 +150 -.0437212925100574 .02395 .0252425
 -.0437212925100574 .03005 .0252425 0 1 137 129 190 0 1 125 152 420 +131 421 0 ?
141 420 125 420 420 129 134 421 0 0 0 0 0 0 +422 423 136 422 2 33 2 17 5 FFF1 42
4 425 426 135 423 2 0 45 66 424 1.570796326794895 -.1950640920313115 1.477688594
184724 -.1950640920313115 1.377272067161732 -.195060602070318 1.27943154173368 -
.195057201637865 1.178051216953724 -.1950505949080375 1.089665109008764 -.195044
8349823615 .978855177577568 -.195035382706672 .911980230508274 -.195029678159902
 .785397993644074 -.1950180053167985 .658487286153938 -.195006302183615 .5919408
53479744 -.19500062161266 .481123100655899 -.1949911619304105 .3927449371329155
 -.194985394675212 .2913809869141475 -.194978780012206 .1935242067640855 -.19497
53727681495 .0931102059148574 -.1949718764850405 0 -.1949718764850405 -.09309537
83067472 -.1949718764850405 -.1935242067640875 -.1949753727681495 -.291349394999
066 -.194978778409324 -.3927449371329195 -.194985394675212 -.481091415010116 -.1
949911594630485 -.591940853479743 -.19500062161266 -.658466614580706 -.195006300
2765605 -.785397993644078 -.1950180053167985 -.911959333798257 -.195029676233714
5 -.978855177577569 -.195035382706672 -1.0896334457114 -.195044832519331 -1.1780
51216953724 -.1950505949080375 -1.279399961965658 -.1950572000379275 -1.37727206
7161732 -.195060602070318 -1.477673765399886 -.1950640920313115 -1.5707963267948
95 -.1950640920313115 127 17 425 3 2 2 2 2 2 2 2 2 2 2 2 2 2 2 2 3 128 17 426 0
 .0625 .125 .1875 .25 .3125 .375 .4375 .5 .5625 .625 .6875 .75 .8125 .875 .9375
 1 137 148 224 0 1 183 202 427 +127 428 0 ?141 427 183 427 427 148 134 428 0 0 0
 0 0 0 +429 430 136 429 2 33 2 17 5 FFF1 431 432 433 135 430 2 0 45 66 431 1.570
796326794895 .01605 1.576574437337665 .01605 1.58241220301561 .01599225684020245
 1.58841523274468 .0159328790021668 1.59392038750659 .01581777884784155 1.599423
03137405 .01570273119055795 1.604503021787225 .0155303886958459 1.60943933839970
5 .0153629204428592 1.61352847595078 .01515667531651595 1.61761675091769 .014950
47369660376 1.62093895764926 .01470135843334272 1.624356119190545 .0144451229953
512 1.626639529843 .01416731368042252 1.62892203902675 .0138896140419567 1.63010
125981476 .01358641318921856 1.631246100047955 .01329205225318096 1.631247121963
215 .013 1.63124814153671 .01270861699710698 1.63010125981476 .01241358681078142
 1.62892352489618 .01211061977780712 1.626639529843 .01183268631957748 1.6243576
19279335 .01155500651749222 1.62093895764926 .01129864156665726 1.61761796278489
5 .01104960063273246 1.61352847595078 .01084332468348402 1.609440811801165 .0106
3714067143712 1.604503021787225 .01046961130415412 1.5994247541519 .010297315811
34502 1.59392038750659 .01018222115215848 1.588417109117245 .01006714924807834 1
.58241220301561 .01000774315979756 1.57657538960758 .00995 1.570796326794895 .00
995 127 17 432 3 2 2 2 2 2 2 2 2 2 2 2 2 2 2 2 3 128 17 433 0 .0625 .125 .1875 .
25 .3125 .375 .4375 .5 .5625 .625 .6875 .75 .8125 .875 .9375 1 141 198 308 434 4
35 187 141 434 227 435 198 187 141 435 206 198 434 187 141 165 163 165 165 162 1
34 166 0 0 0 0 0 0 +436 437 136 436 2 33 2 17 5 FFF1 438 439 440 135 437 2 0 45
 66 438 3.66519142918809 .00995 3.65941331864394 .00995 3.653575552967375 .01000
774315979756 3.64757252323736 .01006712099785662 3.642067368476395 .010182221152
15848 3.63656472460836 .0102972688094505 3.631484734195765 .01046961130415412 3.
626548417581965 .01063707955719626 3.62245928003221 .01084332468348404 3.6183710
05063185 .01104952630351398 3.615048798333725 .01129864156665728 3.6116316367916
55 .01155487700475012 3.609348226139985 .01183268631957748 3.607065716956225 .01
211038595803982 3.60588649616823 .01241358681078144 3.604741655934965 .012707947
7468428 3.604740634019775 .013 3.604739614446345 .01329138300291302 3.6058864961
68225 .01358641318921856 3.60706423108714 .01388938022227492 3.609348226139985 .
01416731368042252 3.611630136705445 .0144449934826843 3.615048798333725 .0147013
5843334272 3.618369793202105 .0149503993675272 3.62245928003221 .015156675316515
95 3.626546944181925 .0153628593285105 3.631484734195765 .0155303886958459 3.636
56300182422 .01570268418847945 3.642067368476395 .01581777884784155 3.6475706468
62575 .01593285075188735 3.653575552967375 .01599225684020245 3.659412366375115
 .01605 3.66519142918809 .01605 127 17 439 3 2 2 2 2 2 2 2 2 2 2 2 2 2 2 2 3 128
 17 440 0 .0625 .125 .1875 .25 .3125 .375 .4375 .5 .5625 .625 .6875 .75 .8125 .8
75 .9375 1 141 160 158 160 160 156 134 161 0 0 0 0 0 0 +441 442 136 441 2 33 2 1
7 5 FFF1 443 444 445 135 442 2 0 45 66 443 3.66519142918809 .01605 3.67096953973
086 .01605 3.676807305408805 .01599225684020245 3.68281033513755 .01593287900217
005 3.688315489899785 .01581777884784155 3.69381813376697 .01570273119056735 3.6
9889812418042 .0155303886958459 3.703834440793565 .01536292044283665 3.707923578
343975 .01515667531651595 3.71201185331256 .01495047369650816 3.715334060042455
 .01470135843334274 3.718751221582515 .0144451229954122 3.721034632236195 .01416
731368042254 3.723317141418475 .01388961404222382 3.724496362207955 .01358641318
921856 3.725641202441215 .01329205225327216 3.72564222435641 .013 3.725643243929
84 .01270861699708326 3.724496362207955 .01241358681078144 3.723318627289095 .01
211061977774188 3.721034632236195 .01183268631957746 3.718752721671445 .01155500
65173907 3.715334060042455 .01129864156665726 3.712013065178295 .011049600632767
32 3.707923578343975 .01084332468348402 3.703835914194425 .0106371406714159 3.69
889812418042 .01046961130415412 3.69381985654269 .01029731581128744 3.6883154898
99785 .01018222115215846 3.68281221151079 .01006714924809294 3.676807305408805 .
01000774315979756 3.67097049200187 .00995 3.66519142918809 .00995 127 17 444 3 2
 2 2 2 2 2 2 2 2 2 2 2 2 2 2 3 128 17 445 0 .0625 .125 .1875 .25 .3125 .375 .437
5 .5 .5625 .625 .6875 .75 .8125 .875 .9375 1 141 154 152 154 154 150 134 155 0 0
 0 0 0 0 +446 447 136 446 2 33 2 17 5 FFF1 448 449 450 135 447 2 0 45 66 448 5.7
5958653158129 .01605 5.76536464212515 .01605 5.771202407802 .01599225684020245 5
.77720543753596 .0159328790021073 5.78271059229298 .01581777884784155 5.78821323
616458 .0157027311904286 5.79329322657362 .0155303886958459 5.79822954318675 .01
536292044282625 5.80231868073717 .01515667531651595 5.80640695570153 .0149504736
9673232 5.80972916243565 .01470135843334272 5.81314632397722 .01444512299539414
 5.81542973462939 .01416731368042252 5.81771224381284 .0138896140419152 5.818891
46460115 .01358641318921856 5.82003630483428 .01329205225331216 5.82003732674961
 .013 5.82003834632316 .01270861699700854 5.81889146460115 .01241358681078144 5.
8177137296814 .01211061977762242 5.81542973462939 .01183268631957748 5.813147824
06417 .01155500651734456 5.80972916243565 .01129864156665728 5.80640816756727 .0
110496006324613 5.80231868073717 .01084332468348404 5.79823101658483 .0106371406
7136806 5.79329322657362 .01046961130415412 5.78821495894397 .0102973158115137 5
.78271059229298 .01018222115215846 5.77720731390917 .0100671492481442 5.77120240
7802 .01000774315979756 5.76536559439506 .00995 5.75958653158129 .00995 127 17 4
49 3 2 2 2 2 2 2 2 2 2 2 2 2 2 2 2 3 128 17 450 0 .0625 .125 .1875 .25 .3125 .37
5 .4375 .5 .5625 .625 .6875 .75 .8125 .875 .9375 1 141 145 412 451 452 132 141 4
51 217 452 145 132 141 452 173 145 451 132 141 144 129 453 454 131 141 453 316 4
54 144 131 141 454 305 144 453 131 15 28 88 0 24 15 0 19 16 93 0 1 0 8 4 S0 141
 19 18 19 19 6 134 21 0 0 0 0 0 0 +455 456 136 455 2 65 2 33 5 FFF1 457 458 459
 135 456 2 0 45 130 457 3.141592653589795 -.1895608074832595 3.234690879198005 -
.1895608074832595 3.335125980680125 -.1895647246996775 3.43295017628938 -.189568
540084333 3.53434922406189 -.189575952174647 3.622689670939915 -.189582409704427
 3.73354134371299 -.189593008843129 3.800017279096915 -.1895993649732785 3.92699
0549874505 -.1896124793402315 4.053504922367195 -.189625546310118 4.120439824916
765 -.189631940968284 4.231210305782005 -.189642523479546 4.31963213810416 -.189
6489769374545 4.420980529926685 -.1896563738389165 4.51885557011299 -.1896601836
97781 4.61925219497475 -.189664091711208 4.71238898038469 -.1896640920313115 4.8
0549448878657 -.189664092351308 4.90592239065639 -.189660183697781 5.00376584926
766 -.189656375630775 5.10514582266522 -.1896489769374545 5.19353598968141 -.189
642526238008 5.30433813585261 -.189631940968284 5.37125212129227 -.1896255484695
045 5.49778741089487 -.1896124793402315 5.62474002594396 -.1895993671077245 5.69
123661705639 -.189593008843129 5.80205661532023 -.18958241246729 5.8904287367074
9 -.189575952174647 5.99179619971309 -.189568541879803 6.08965198008925 -.189564
7246996775 6.19007225287208 -.1895608074832595 6.28318530717959 -.18956080748325
95 6.37628353279501 -.1895608074832595 6.47671863426992 -.1895647246996775 6.574
54282731833 -.1895685400842335 6.67594187765168 -.189575952174647 6.764282321083
08 -.1895824097040985 6.87513399730278 -.189593008843129 6.94160993265414 -.1895
99364973275 7.0685832034643 -.1896124793402315 7.19509757590256 -.18962554631011
3 7.26203247850656 -.189631940968284 7.37280295937498 -.189642523479546 7.461224
79169395 -.1896489769374545 7.56257318350889 -.189656373838916 7.66044822370278
 -.189660183697781 7.76084485076152 -.1896640917112935 7.85398163397448 -.189664
0920313115 7.94708714457606 -.1896640923512225 8.04751504424618 -.18966018369778
1 8.14535850286733 -.1896563756307745 8.24673847625502 -.1896489769374545 8.3351
2863896863 -.189642526238322 8.44593078944241 -.189631940968284 8.51284476729881
 -.1896255484702875 8.63938006448467 -.1896124793402315 8.76633267181691 -.18959
93671085215 8.83282927064618 -.189593008843129 8.94364926452357 -.18958241246761
05 9.03202139029728 -.189575952174647 9.13338885329987 -.189568541879803 9.23124
463367905 -.1895647246996775 9.33166490646187 -.1895608074832595 9.4247779607693
8 -.1895608074832595 127 33 458 3 2 2 2 2 2 2 2 2 2 2 2 2 2 2 2 2 2 2 2 2 2 2 2
 2 2 2 2 2 2 2 2 3 128 33 459 0 .03125 .0625 .09375 .125 .15625 .1875 .21875 .25
 .28125 .3125 .34375 .375 .40625 .4375 .46875 .5 .53125 .5625 .59375 .625 .65625
 .6875 .71875 .75 .78125 .8125 .84375 .875 .90625 .9375 .96875 1 74 20 14 6 0 0
 460 12 376 287 285 2 0 0 0 0 0 0 0 0 0 0 0 0 0 0 81 1 460 149 461 1 0 12 0 0 46
2 81 1 12 150 463 1 460 2 0 0 464 80 1 463 278 465 8041 0 0 0 0 3 5 0 0 0 TTTFFF
FFFFFFFF2 83 1 464 0 79 23 465 SDL/TYSA_TRANSLUCENCY_280 1 461 375 466 8040 0 0
 0 0 3 5 0 0 0 TTTFFFFFFFFFFF2 83 3 462 .898039215686275 .898039215686275 .89803
9215686275 79 17 466 SDL/TYSA_COLOUR_280 1 11 467 468 8017 0 0 0 0 0 0 0 0 0 TTT
TTTTTTTTTTF3 84 6 13 Solid179 13 468 SDL/TYSA_NAME1 0 
