**ABCDEFGHIJKLMNOPQRSTUVWXYZabcdefghijklmnopqrstuvwxyz**************************
**PARASOLID !"#$%&'()*+,-./:;<=>?@[\]^_`{|}~0123456789**************************
**PART1;
MC=AMD64;
MC_MODEL=Intel64 Family 6 Model 60 Stepping 3, GenuineIntel;
MC_ID=unknown;
OS=Windows_NT;
OS_RELEASE=6.1;
FRU=Autodesk;
APPL=Autodesk Inventor 2016;
SITE=unknown;
USER=unknown;
FORMAT=text;
GUISE=transmit;
KEY=endcapOptionLeft;
FILE=C:\Users\krosie\Google Drive\HERA\hera-cad\support\endcaps\endcapOptionLeft.x_t;
DATE=Fri, 17d Jul 2015d 14d:51d:00d GMT;
**PART2;
SCH=SCH_2700196_26105;
USFLD_SIZE=0;
**PART3;
**END_OF_HEADER*****************************************************************
T51 : TRANSMIT FILE created by modeller version 270019617 SCH_2700196_261050 74
 9 1 9 0 0 2 3 4 5 6 7 8 9 10 12 2 10 0 11 0 0 0 0 1e3 1e-8 0 3 0 1 0 2 1 12 0 1
3 14 15 0 16 0 0 0 0 0 0 0 12 3 10 0 17 0 0 0 0 1e3 1e-8 0 4 2 1 0 2 1 18 0 19 2
0 21 0 22 0 0 0 0 0 0 0 12 4 10 0 23 0 0 0 0 1e3 1e-8 0 5 3 1 0 2 1 24 0 25 26 2
7 0 28 0 0 0 0 0 0 0 12 5 10 0 29 0 0 0 0 1e3 1e-8 0 6 4 1 0 2 1 30 0 31 32 33 0
 34 0 0 0 0 0 0 0 12 6 10 0 35 0 0 0 0 1e3 1e-8 0 7 5 1 0 2 1 36 0 37 38 39 0 40
 0 0 0 0 0 0 0 12 7 10 0 41 0 0 0 0 1e3 1e-8 0 8 6 1 0 2 1 42 0 43 44 45 0 46 0
 0 0 0 0 0 0 12 8 10 0 47 0 0 0 0 1e3 1e-8 0 9 7 1 0 2 1 48 0 49 50 51 0 52 0 0
 0 0 0 0 0 12 9 4 0 0 0 0 0 0 1e3 1e-8 0 10 8 1 0 2 1 53 0 0 54 55 0 56 0 0 0 0
 0 0 0 12 10 632 57 58 0 0 0 0 1e3 1e-8 0 0 9 1 0 1 1 59 60 61 62 63 64 65 0 0 0
 0 0 0 0 81 1 57 632 66 10 0 0 0 0 67 70 58 0 4 T10 0 0 4 20 1 68 68 13 59 4 0 1
0 0 69 0 0 70 0 50 60 466 0 71 72 0 0 +.00775734649111382 .1466 0 .6156614753256
58 .788010753606722 0 -.671032974212203 .524268417664046 .524268417664046 30 61
 567 0 73 74 0 0 +.00775734649111382 .1466 0 0 0 1 29 62 631 0 75 76 0 0 0 -.025
 19 63 2 0 10 70 0 77 V0 16 64 59 0 ?78 0 79 80 0 0 10 18 65 8 0 81 0 82 83 ?10
 17 81 0 84 81 81 65 85 86 0 85 -18 82 11 0 87 65 88 89 ?10 29 83 568 0 65 0 89
 .0425 .003 -.015 29 89 569 0 82 83 90 .0475 0 -.015 29 90 570 0 88 89 91 .0225
 .015 0 18 88 15 0 92 82 93 90 ?10 29 91 571 0 93 90 94 .0275 .015 .003 18 93 18
 0 95 88 96 91 ?10 29 94 572 0 96 91 97 .0625 .015 0 18 96 22 0 98 93 99 94 ?10
 29 97 573 0 99 94 100 .0675 .015 .003 18 99 25 0 101 96 102 97 ?10 29 100 574 0
 102 97 103 .0581043251176446 .0862761419686952 0 18 102 29 0 104 99 105 100 ?10
 29 103 575 0 105 100 106 .0631043251176446 .0862761419686952 .003 18 105 32 0 1
07 102 108 103 ?10 29 106 576 0 108 103 109 .1014449165660142 .052414760825784 0
 18 108 36 0 110 105 111 106 ?10 29 109 577 0 111 106 112 .1064449165660142 .052
414760825784 .003 18 111 39 0 113 108 114 109 ?10 29 112 578 0 114 109 115 .0072
469332628706 .1291 .0270459231360939 18 114 43 0 116 111 117 112 ?10 29 115 579
 0 117 112 118 .0101447107417378 .1341 .02626946600078635 18 117 46 0 119 114 12
0 115 ?10 29 118 580 0 120 115 121 .0506811521089981 .1016 .0523122985678281 18
 120 50 0 122 117 123 118 ?10 29 121 581 0 123 118 124 .0456811521089981 .1046 .
0523122985678281 18 123 53 0 125 120 126 121 ?10 29 124 582 0 126 121 127 .02356
862591000835 .1016 .0744363477926885 18 126 57 0 128 123 129 124 ?10 29 127 583
 0 130 124 131 .02356862591000835 .1046 .0744363477926885 18 130 58 0 132 133 13
4 127 ?10 29 131 584 0 129 127 135 .0665523251798719 .1016 .0629189002856263 18
 129 60 0 136 126 133 131 ?10 29 135 585 0 133 131 137 .0665523251798719 .1046 .
0629189002856263 18 133 62 0 138 129 130 135 ?10 29 137 586 0 134 135 139 .00493
326352855686 .1016 .00488822856765379 18 134 68 0 140 130 141 137 ?10 29 139 587
 0 141 137 142 .0510030535568056 .1016 .00488822856765379 18 141 70 0 143 134 14
4 139 ?10 29 142 588 0 144 139 145 .00493326352855686 .1046 .00488822856765379 1
8 144 75 0 146 141 147 142 ?10 29 145 589 0 147 142 148 .0510030535568056 .1046
 .00488822856765379 18 147 77 0 149 144 150 145 ?10 29 148 590 0 150 145 151 .02
308566299686385 .1051 .0745657573152398 18 150 89 0 152 147 153 148 ?10 29 151 5
91 0 153 148 154 .02018788551799665 .1051 .0753422144505473 18 153 91 0 155 150
 156 151 ?10 29 154 592 0 156 151 157 .004450300615412345 .1051 .005017638090205
05 18 156 96 0 158 153 159 154 ?10 29 157 593 0 159 154 160 .00155252313654514 .
1051 .00579409522551261 18 159 101 0 161 156 162 157 ?10 29 160 594 0 162 157 16
3 .00151784795948461 .1051 .00566468570296137 18 162 109 0 164 159 165 160 ?10 2
9 163 595 0 165 160 166 .00441562543835182 .1051 .00488822856765381 18 165 111 0
 167 162 168 163 ?10 29 166 596 0 168 163 169 .00586451417778542 .1016 .003 18 1
68 116 0 170 165 171 166 ?10 29 169 597 0 172 166 173 .00586451417778542 .1016 -
555111512312578e-33 18 172 117 0 174 175 176 169 ?10 29 173 598 0 171 169 177 .0
0586451417778543 .1051 .003 18 171 119 0 178 168 175 173 ?10 29 177 599 0 175 17
3 179 .00586451417778542 .1051 0 18 175 121 0 180 171 172 177 ?10 29 179 600 0 1
76 177 181 .001517847959484625 .1466 .00566468570296136 18 176 130 0 182 172 183
 179 ?10 29 181 601 0 183 179 184 .00586451417778542 .1466 -555111512312578e-33
 18 183 132 0 185 176 186 181 ?10 29 184 602 0 186 181 187 .02018788551799665 .1
466 .0753422144505473 18 186 138 0 188 183 189 184 ?10 29 187 603 0 190 184 191
 .00441562543835183 .1466 .00488822856765379 18 190 143 0 192 189 193 187 ?10 29
 191 604 0 189 187 194 .02308566299686385 .1466 .0745657573152398 18 189 145 0 1
95 186 190 191 ?10 29 194 605 0 193 191 196 .00586451417778542 .1466 .003 18 193
 157 0 197 190 198 194 ?10 29 196 606 0 198 194 199 .00736451417778542 .1016 -55
5111512312578e-33 18 198 165 0 200 193 201 196 ?10 29 199 607 0 201 196 202 .007
36451417778542 .1016 .003 18 201 167 0 203 198 204 199 ?10 29 202 608 0 205 199
 206 .00736451417778542 .0986 .003 18 205 172 0 207 204 208 202 ?10 29 206 609 0
 204 202 209 .00736451417778542 .0986 -555111512312578e-33 18 204 174 0 210 201
 205 206 ?10 29 209 610 0 211 206 212 0 .0986 .003 18 211 179 0 213 208 214 209
 ?10 29 212 611 0 208 209 215 0 .0986 -555111512312578e-33 18 208 181 0 216 205
 211 212 ?10 29 215 612 0 214 212 217 0 .0045 .003 18 214 190 0 218 211 219 215
 ?10 29 217 613 0 219 215 220 .125 .0045 .003 18 219 192 0 221 214 222 217 ?10 2
9 220 614 0 222 217 223 .125 .055 .003 18 222 194 0 224 219 225 220 ?10 29 223 6
15 0 225 220 226 .00775734649111382 .1466 .003 18 225 196 0 227 222 228 223 ?10
 29 226 616 0 228 223 229 0 .0045 0 18 228 201 0 230 225 231 226 ?10 29 229 617
 0 231 226 232 .00775734649111382 .1466 0 18 231 210 0 233 228 234 229 ?10 29 23
2 618 0 234 229 235 .125 .055 0 18 234 212 0 236 231 237 232 ?10 29 235 619 0 23
7 232 238 .125 .0045 0 18 237 214 0 239 234 240 235 ?10 29 238 620 0 240 235 241
 .125 0 -.0015 18 240 219 0 242 237 243 238 ?10 29 241 621 0 244 238 245 .125 .0
03 -.0015 18 244 220 0 246 247 248 241 ?10 29 245 622 0 243 241 249 .125 0 -.003
 18 243 222 0 250 240 247 245 ?10 29 249 623 0 247 245 251 .125 .003 -.003 18 24
7 224 0 252 243 244 249 ?10 29 251 624 0 253 249 254 .1257612527430102 .003 -.00
3 18 253 229 0 255 248 256 251 ?10 29 254 625 0 248 251 257 .1257612527430102 0
 -.003 18 248 231 0 258 244 253 254 ?10 29 257 626 0 256 254 259 .12576125274301
02 .003 -.025 18 256 237 0 260 253 261 257 ?10 29 259 627 0 261 257 262 0 .003 -
.025 18 261 239 0 263 256 264 259 ?10 29 262 628 0 264 259 265 0 .003 -.0015 18
 264 241 0 266 261 267 262 ?10 29 265 629 0 267 262 76 .1257612527430102 0 -.025
 18 267 246 0 268 264 75 265 ?10 29 76 630 0 269 265 62 0 0 -.0015 18 269 251 0
 270 75 0 76 ?10 17 270 0 271 272 273 269 242 274 0 275 -18 75 253 0 272 267 269
 62 ?10 17 272 0 271 276 270 75 277 278 0 279 +15 271 260 0 273 280 0 17 276 0 2
71 281 272 267 282 283 0 0 +17 277 0 284 266 279 269 272 278 0 285 -16 278 254 0
 ?272 286 283 287 0 0 10 17 279 0 284 277 288 75 289 290 0 282 -15 284 249 0 266
 291 0 17 288 0 284 279 266 261 292 293 0 289 +17 289 0 294 260 282 261 279 290
 0 0 +16 290 252 0 ?289 295 296 297 0 0 10 17 282 0 294 289 298 75 276 283 0 0 -
15 294 256 0 260 299 0 17 298 0 294 282 260 267 300 301 0 276 -16 283 257 0 ?276
 278 302 303 0 0 10 16 302 245 0 ?281 283 304 305 0 0 10 30 303 559 0 283 287 30
6 0 +0 0 -.025 1 0 0 30 287 558 0 278 297 303 0 +0 0 0 0 0 -1 30 306 560 0 274 3
03 307 0 +.125 -555111512312578e-33 -.0015 1 0 0 16 274 261 0 ?242 308 309 306 0
 0 10 31 307 561 0 310 306 311 0 +.125 .0045 -.0015 1 0 0 0 -1233581138472396e-3
1 1 .0015 16 310 264 0 ?312 313 314 307 0 0 10 30 311 562 0 315 307 316 0 +.125
 .0045 0 0 0 -1 16 315 265 0 ?317 309 318 311 0 0 10 31 316 563 0 319 311 320 0
 +.125 .0045 -.0015 1 0 0 0 -1233581138472396e-31 1 .0045 16 319 266 0 ?321 322
 313 316 0 0 10 31 320 564 0 308 316 323 0 +0 .0045 -.0015 1 0 0 0 -123358113847
2396e-31 1 .0015 16 308 269 0 ?324 314 274 320 0 0 10 31 323 565 0 309 320 74 0
 +0 .0045 -.0015 1 0 0 0 -1233581138472396e-31 1 .0045 16 309 272 0 ?285 274 315
 323 0 0 10 30 74 566 0 325 323 61 0 +.125 .055 0 0 0 1 16 325 277 0 ?326 318 32
7 74 0 0 10 17 326 0 328 221 329 222 330 325 0 0 +16 318 213 0 ?329 315 325 331
 0 0 10 16 327 193 0 ?221 325 332 333 0 0 10 17 221 0 328 317 326 219 334 327 0
 335 +16 332 158 0 ?197 327 336 337 0 0 10 30 333 534 0 327 338 339 0 +.125 0 .0
03 0 -1 0 30 338 533 0 340 341 333 0 +.01265052280970498 .0045 .003 1 0 0 30 339
 535 0 342 333 343 0 +.125 .055 .003 .788010753606722 -.615661475325658 0 16 342
 195 0 ?224 344 345 339 0 0 10 30 343 536 0 336 339 346 0 +.00775734649111382 .1
466 .003 1 22899026637976e-28 0 16 336 197 0 ?347 332 344 343 0 0 10 30 346 537
 0 348 343 349 0 +0 .1466 0 0 -1 0 16 348 200 0 ?350 351 352 346 0 0 10 30 349 5
38 0 352 346 353 0 +0 .0045 0 0 0 1 16 352 202 0 ?354 348 355 349 0 0 10 30 353
 539 0 344 349 356 0 +.00775734649111382 .1466 0 -1 -22899026637976e-28 0 16 344
 209 0 ?357 336 342 353 0 0 10 30 356 540 0 345 353 331 0 +.125 .055 0 -.7880107
53606722 .615661475325658 0 16 345 211 0 ?233 342 73 356 0 0 10 30 331 541 0 318
 356 358 0 +.125 0 0 0 1 0 30 358 542 0 359 331 360 0 +.01265052280970498 .0045
 0 -1 0 0 16 359 215 0 ?230 361 362 358 0 0 10 30 360 543 0 322 358 363 0 +.125
 .003 -.0015 0 1 -616790569236198e-31 16 322 218 0 ?364 304 319 360 0 0 10 30 36
3 544 0 286 360 365 0 +.125 0 -.00625 0 0 1 16 286 221 0 ?273 296 278 363 0 0 10
 30 365 545 0 366 363 367 0 +.125 0 -.003 0 1 0 16 366 223 0 ?368 369 86 365 0 0
 10 30 367 546 0 370 365 371 0 +.125 .003 -.00625 0 0 -1 16 370 225 0 ?252 86 37
2 367 0 0 10 30 371 547 0 372 367 373 0 +.0939403131857525 .003 -.003 1 0 0 16 3
72 228 0 ?374 370 375 371 0 0 10 30 373 548 0 304 371 376 0 +.0939403131857525 0
 -.003 -1 0 0 16 304 230 0 ?377 302 322 373 0 0 10 30 376 549 0 375 373 378 0 +.
1257612527430102 0 -.003 0 -1 0 16 375 232 0 ?379 372 301 376 0 0 10 30 378 550
 0 380 376 381 0 +.1257612527430102 .003 -.025 0 0 1 16 380 236 0 ?382 301 293 3
78 0 0 10 30 381 551 0 295 378 383 0 +0 .003 -.025 1 0 0 16 295 238 0 ?260 293 2
90 381 0 0 10 30 383 552 0 293 381 384 0 +0 .003 0 0 0 -1 16 293 240 0 ?288 380
 295 383 0 0 10 30 384 553 0 313 383 305 0 +0 .003 -.0015 -1 0 0 16 313 242 0 ?3
85 319 310 384 0 0 10 30 305 554 0 302 384 386 0 +.1257612527430102 0 -.025 0 0
 1 30 386 555 0 301 305 387 0 +.1257612527430102 0 -.025 0 1 0 16 301 247 0 ?300
 375 380 386 0 0 10 30 387 556 0 314 386 297 0 +0 -555111512312578e-33 -.0015 0
 -1 616790569236198e-31 16 314 250 0 ?275 310 308 387 0 0 10 30 297 557 0 290 38
7 287 0 +0 0 -.025 0 1 0 17 275 0 388 389 324 269 266 314 0 277 +15 388 271 0 27
5 390 0 17 389 0 388 391 275 214 285 309 0 0 -17 324 0 388 275 391 264 392 308 0
 0 +17 266 0 284 288 277 264 275 314 0 385 -17 385 0 393 392 312 264 246 313 0 2
92 +15 393 268 0 385 394 0 17 392 0 393 395 385 228 324 308 0 0 -17 312 0 393 38
5 395 244 396 310 0 0 +17 246 0 397 252 292 244 385 313 0 364 -17 292 0 397 246
 263 264 288 293 0 324 -15 397 235 0 252 398 0 17 263 0 397 292 399 261 260 295
 0 288 -17 399 0 397 263 374 256 382 380 0 300 -17 260 0 294 298 289 256 263 295
 0 399 +17 374 0 397 399 252 253 400 372 0 382 +17 382 0 401 379 300 253 399 380
 0 0 +17 300 0 401 382 268 256 298 301 0 0 +15 401 244 0 379 402 0 17 268 0 401
 300 379 267 281 302 0 298 -17 379 0 401 268 382 248 255 375 0 281 +17 281 0 271
 377 276 248 268 302 0 0 +17 377 0 271 273 281 243 258 304 0 0 +17 273 0 271 270
 377 240 250 286 0 321 +17 258 0 403 255 404 248 377 304 0 379 -15 403 227 0 400
 405 0 17 255 0 403 400 258 253 379 375 0 374 -17 404 0 403 258 400 243 368 366
 0 377 -17 400 0 403 404 255 247 374 372 0 0 -17 368 0 406 407 250 247 404 366 0
 400 +15 406 217 0 408 409 0 17 407 0 406 408 368 244 252 370 0 312 -17 250 0 40
6 368 408 243 273 286 0 404 -17 408 0 406 250 407 240 364 322 0 273 -17 364 0 41
0 396 321 244 408 322 0 407 +15 410 263 0 364 411 0 17 396 0 410 335 364 237 312
 310 0 395 -17 321 0 410 364 335 240 412 319 0 0 +17 335 0 410 321 396 219 317 3
15 0 413 -17 412 0 414 415 242 219 321 319 0 0 -15 414 274 0 242 416 0 17 415 0
 414 285 412 214 413 340 0 389 -17 242 0 414 412 285 240 270 274 0 408 +17 285 0
 414 242 415 269 389 309 0 0 +17 413 0 417 334 218 219 415 340 0 412 +16 340 191
 0 ?413 418 419 338 0 0 10 16 418 178 0 ?420 421 340 422 0 0 10 16 419 161 0 ?42
3 340 424 425 0 0 10 17 423 0 417 170 426 171 427 419 0 0 +16 424 118 0 ?170 419
 351 428 0 0 10 30 425 522 0 419 337 429 0 +.00586451417778542 .1094611073361404
 .003 0 -1 0 30 337 521 0 332 430 425 0 +.00586451417778542 .1466 .0015 0 0 1 30
 429 523 0 431 425 432 0 +.01265052280970498 .1016 0 -1 0 0 16 431 164 0 ?433 43
4 435 429 0 0 10 30 432 524 0 436 429 437 0 +.00736451417778542 .1016 -555111512
312578e-33 0 0 1 16 436 166 0 ?438 439 440 432 0 0 10 30 437 525 0 441 432 442 0
 +.01265052280970498 .1016 .003 1 0 0 16 441 168 0 ?203 443 421 437 0 0 10 30 44
2 526 0 421 437 444 0 +.00736451417778542 .1094611073361404 .003 0 -1 0 16 421 1
71 0 ?207 441 418 442 0 0 10 30 444 527 0 369 442 445 0 +.00736451417778542 .109
4611073361404 0 0 1 0 16 369 173 0 ?446 362 366 444 0 0 10 30 445 528 0 440 444
 422 0 +.00736451417778542 .0986 -555111512312578e-33 0 0 1 16 440 175 0 ?447 43
6 448 445 0 0 10 30 422 529 0 418 445 449 0 +.0163327798985977 .0986 .003 -1 0 0
 30 449 530 0 362 422 450 0 +.0163327798985977 .0986 0 1 0 0 16 362 180 0 ?451 3
59 369 449 0 0 10 30 450 531 0 351 449 341 0 +0 .0986 -277555756156289e-33 0 0 -
1 16 351 182 0 ?452 424 348 450 0 0 10 30 341 532 0 355 450 338 0 +0 .1466 .003
 0 1 0 16 355 189 0 ?453 352 454 341 0 0 10 17 453 0 455 452 354 211 218 355 0 0
 +16 454 14 0 ?456 355 457 458 0 0 10 17 456 0 459 456 456 88 92 454 0 0 +16 457
 21 0 ?460 454 461 462 0 0 10 31 458 469 0 454 463 464 0 +.025 .015 0 0 0 1 1 0
 0 .0025 31 463 468 0 296 465 458 0 +.045 0 -.015 0 1 0 1 0 0 .0025 31 464 470 0
 448 458 462 0 +.025 .015 .003 0 0 -1 1 0 0 .0025 16 448 17 0 ?466 440 467 464 0
 0 10 31 462 471 0 457 464 468 0 +.065 .015 0 0 0 1 1 0 0 .0025 31 468 472 0 467
 462 469 0 +.065 .015 .003 0 0 -1 1 0 0 .0025 16 467 24 0 ?470 448 471 468 0 0 1
0 31 469 473 0 461 468 472 0 +.0606043251176446 .0862761419686952 0 0 0 1 1 0 0
 .0025 16 461 28 0 ?473 457 434 469 0 0 10 31 472 474 0 471 469 474 0 +.06060432
51176446 .0862761419686952 .003 0 0 -1 1 0 0 .0025 16 471 31 0 ?475 467 443 472
 0 0 10 31 474 475 0 434 472 476 0 +.1039449165660142 .052414760825784 0 0 0 1 1
 0 0 .0025 16 434 35 0 ?477 461 431 474 0 0 10 31 476 476 0 443 474 478 0 +.1039
449165660142 .052414760825784 .003 0 0 -1 1 0 0 .0025 16 443 38 0 ?479 471 441 4
76 0 0 10 31 478 477 0 480 476 481 0 +.0072469332628706 .1316 .0270459231360939
 .965925826289068 -361238613740953e-31 -.258819045102521 475617943447947e-31 1 0
 .0025 16 480 42 0 ?482 483 484 478 0 0 10 31 481 478 0 485 478 486 0 +.01014471
07417378 .1316 .02626946600078635 -.965925826289068 459411655022865e-31 .2588190
451025215 475617943447947e-31 1 0 .0025 16 485 45 0 ?487 488 489 481 0 0 10 31 4
86 479 0 490 481 491 0 +.0481811521089981 .1016 .0523122985678281 28490612741213
9e-32 1 -2056099115352515e-31 -1 -232573366624735e-31 0 .0025 16 490 49 0 ?492 4
93 494 486 0 0 10 31 491 480 0 495 486 496 0 +.0481811521089981 .1046 .052312298
5678281 232573366624735e-31 -1 1798269087229685e-31 -1 -232573366624735e-31 0 .0
025 16 495 52 0 ?497 498 499 491 0 0 10 30 496 481 0 499 491 80 0 +.023568625910
00835 .1046 .0744363477926885 -1387778780781446e-32 1 -130451205393456e-29 16 49
9 56 0 ?500 495 501 496 0 0 10 30 80 482 0 64 496 502 0 +.02308566299686385 .101
6 .0745657573152398 .965925826289068 -107173505459654e-30 -.258819045102521 30 5
02 483 0 79 80 503 0 +.0665523251798719 .1016 .0629189002856263 0 1 -18503717077
0859e-30 16 79 61 0 ?504 64 493 502 0 0 10 30 503 484 0 493 502 505 0 +.02308566
299686385 .1046 .0745657573152398 -.965925826289068 107173505459654e-30 .2588190
45102521 16 493 63 0 ?506 79 490 503 0 0 10 30 505 485 0 507 503 508 0 +.0235686
2591000835 .1016 .0744363477926885 .2588190451025205 2220446049250315e-31 .96592
5826289068 16 507 67 0 ?128 509 510 505 0 0 10 30 508 486 0 511 505 512 0 +.0510
030535568056 .1016 .00488822856765379 -1 740501836805595e-31 238309576094712e-30
 16 511 69 0 ?513 494 514 508 0 0 10 30 512 487 0 515 508 516 0 +.06655232517987
19 .1016 .0629189002856263 -.258819045102521 -1138690281666826e-31 -.96592582628
9068 16 515 71 0 ?143 514 498 512 0 0 10 30 516 488 0 517 512 518 0 +.0049332635
2855686 .1016 .0048882285676538 -277555756156289e-30 -1 24980018054066e-29 16 51
7 74 0 ?519 520 509 516 0 0 10 30 518 489 0 494 516 521 0 +.0510030535568056 .10
46 .00488822856765379 1 -740501836805595e-31 -238309576094712e-30 16 494 76 0 ?5
22 490 511 518 0 0 10 30 521 490 0 498 518 523 0 +.0510030535568056 .1016 .00488
822856765379 0 1 -185037170770859e-30 16 498 78 0 ?149 515 495 521 0 0 10 30 523
 491 0 514 521 524 0 +.0665523251798719 .1046 .0629189002856263 .258819045102521
 1138690281666826e-31 .965925826289068 16 514 81 0 ?525 511 515 523 0 0 10 30 52
4 492 0 526 523 527 0 +.00493326352855686 .1046 .0048882285676538 -.258819045102
5205 -2220446049250315e-31 -.965925826289068 16 526 85 0 ?528 501 520 524 0 0 10
 31 527 493 0 520 524 529 0 +.02356862591000835 .1051 .0744363477926885 .2588190
45102521 0 .965925826289068 -.965925826289068 1015061051085864e-29 .258819045102
521 .000499999999999973 16 520 88 0 ?530 526 517 527 0 0 10 30 529 494 0 531 527
 532 0 +.02163677425743025 .1051 .0749539858828935 .965925826289068 0 -.25881904
5102521 16 531 90 0 ?533 534 535 529 0 0 10 31 532 495 0 501 529 536 0 +.0235686
2591000835 .1051 .0744363477926885 .258819045102521 0 .965925826289068 -.9659258
26289068 1015061051085864e-29 .258819045102521 .0035 16 501 92 0 ?537 499 526 53
2 0 0 10 31 536 496 0 509 532 538 0 +.00493326352855686 .1051 .00488822856765379
 .258819045102521 0 .965925826289068 -.965925826289068 1015061051085864e-29 .258
8190451025205 .000499999999999974 16 509 95 0 ?539 517 507 536 0 0 10 30 538 497
 0 489 536 540 0 +.00870367283810867 .1051 .02089143932880995 -.2588190451025215
 0 -.965925826289068 16 489 97 0 ?158 485 541 538 0 0 10 31 540 498 0 510 538 54
2 0 +.00493326352855686 .1051 .00488822856765379 .258819045102521 0 .96592582628
9068 -.965925826289068 1015061051085864e-29 .258819045102521 .0035 16 510 100 0
 ?543 507 544 540 0 0 10 30 542 499 0 544 540 545 0 +.003725856245695535 .1051 .
00521175237403194 -.965925826289068 0 .258819045102521 16 544 102 0 ?546 510 547
 542 0 0 10 30 545 500 0 548 542 549 0 +.00580589535924147 .1051 .02166789646411
75 .258819045102521 0 .965925826289068 16 548 105 0 ?550 484 551 545 0 0 10 30 5
49 501 0 484 545 552 0 +.00580589535924147 .1051 .0216678964641175 .258819045102
521 0 .965925826289068 16 484 108 0 ?553 480 548 549 0 0 10 30 552 502 0 554 549
 555 0 +.00441562543835182 .1051 .00488822856765381 -.965925826289068 0 .2588190
451025215 16 554 110 0 ?556 547 557 552 0 0 10 30 555 503 0 541 552 558 0 +.0087
0367283810867 .1051 .02089143932880995 -.2588190451025215 0 -.965925826289068 16
 541 112 0 ?559 489 560 555 0 0 10 30 558 504 0 439 555 428 0 +.0058645141777854
2 .1016 .003 0 0 -1 16 439 115 0 ?561 562 436 558 0 0 10 30 428 505 0 424 558 56
3 0 +.00586451417778542 .1094611073361404 .003 0 -1 0 30 563 506 0 547 428 564 0
 +.00586451417778543 .1051 .003 -259052039079203e-29 0 -1 16 547 120 0 ?565 544
 554 563 0 0 10 30 564 507 0 435 563 566 0 +.00586451417778542 .1094611073361404
 0 0 1 0 16 435 122 0 ?180 431 361 564 0 0 10 31 566 508 0 557 564 567 0 +.00586
451417778543 .1051 .0045 474443607166711e-43 1 1176783236957842e-44 -22204460492
5031e-29 0 -1 .0045 16 557 125 0 ?568 554 483 566 0 0 10 31 567 509 0 569 566 57
0 0 +.00586451417778543 .1051 .0045 -474443607166711e-43 -1 -1176783236957842e-4
4 -222044604925031e-29 0 -1 .0015 16 569 126 0 ?571 572 573 567 0 0 10 30 570 51
0 0 483 567 574 0 +.001517847959484625 .1466 .00566468570296136 0 1 0 16 483 129
 0 ?575 557 480 570 0 0 10 31 574 511 0 572 570 576 0 +.00586451417778543 .1466
 .0045 0 1 0 -222044604925031e-29 0 -1 .0045 16 572 131 0 ?182 560 569 574 0 0 1
0 30 576 512 0 361 574 577 0 +.00586451417778542 .1094611073361404 0 0 1 0 16 36
1 133 0 ?578 435 359 576 0 0 10 30 577 513 0 488 576 579 0 +.02018788551799665 .
1466 .0753422144505473 0 -1 0 16 488 137 0 ?580 535 485 577 0 0 10 30 579 514 0
 551 577 581 0 +0 .1466 0 .258819045102521 0 .965925826289068 16 551 139 0 ?582
 548 583 579 0 0 10 30 581 515 0 560 579 584 0 +.00441562543835183 .1466 .004888
22856765379 .965925826289068 0 -.258819045102521 16 560 142 0 ?585 541 572 581 0
 0 10 30 584 516 0 583 581 586 0 +.02018788551799665 .1466 .0753422144505473 .96
5925826289068 0 -.258819045102521 16 583 144 0 ?587 551 534 584 0 0 10 30 586 51
7 0 534 584 588 0 +.002897777478867205 .1466 -.000776457135307563 -.258819045102
521 0 -.965925826289068 16 534 146 0 ?589 583 531 586 0 0 10 30 588 518 0 535 58
6 590 0 +.02308566299686385 .1466 .0745657573152398 0 1 0 16 535 149 0 ?591 531
 488 588 0 0 10 30 590 519 0 562 588 430 0 +.00441562543835183 .1016 .0048882285
6765379 0 -1 0 16 562 153 0 ?592 573 439 590 0 0 10 31 430 520 0 573 590 337 0 +
.00586451417778543 .1466 .0045 0 1 0 -222044604925031e-29 0 -1 .0015 16 573 156
 0 ?593 569 562 430 0 0 10 17 593 0 594 592 427 190 595 573 0 0 +15 594 160 0 57
1 596 0 17 592 0 594 571 593 165 192 562 0 0 +17 427 0 594 593 571 193 423 419 0
 595 -17 595 0 597 185 585 193 593 573 0 426 -15 597 155 0 585 598 0 17 185 0 59
7 182 595 183 197 332 0 578 -17 585 0 597 595 182 190 599 560 0 589 +17 426 0 41
7 423 227 193 347 336 0 0 -15 417 188 0 203 600 0 17 227 0 417 426 334 225 224 3
42 0 347 -17 347 0 601 602 197 225 426 336 0 603 +15 601 279 0 197 604 0 17 602
 0 601 357 347 231 603 73 0 0 -17 197 0 601 347 357 193 185 332 0 427 +17 603 0
 605 224 233 225 602 73 0 0 +15 605 282 0 224 71 0 17 224 0 605 330 603 222 227
 342 0 334 +17 233 0 605 603 330 231 236 345 0 606 +16 73 280 0 ?603 345 0 61 0
 0 10 17 330 0 605 233 224 234 326 325 0 0 -17 236 0 607 239 606 234 233 345 0 3
29 -17 606 0 607 236 578 231 357 344 0 602 -15 607 208 0 433 608 0 17 578 0 607
 606 180 183 609 361 0 610 +17 357 0 601 197 602 183 606 344 0 0 +17 180 0 607 5
78 433 175 174 435 0 611 +17 609 0 612 568 610 175 578 361 0 0 -17 610 0 612 609
 575 183 182 572 0 357 -15 612 128 0 568 613 0 17 575 0 612 610 568 176 614 483
 0 599 +17 182 0 597 585 185 176 610 572 0 615 +17 615 0 616 614 188 176 582 551
 0 575 -15 616 136 0 553 617 0 17 614 0 616 553 615 162 575 483 0 0 -17 188 0 61
6 615 550 186 580 488 0 582 -17 582 0 618 587 599 186 615 551 0 619 +15 618 141
 0 599 620 0 17 587 0 618 589 582 189 619 583 0 591 +17 599 0 618 582 589 176 58
5 560 0 0 -17 619 0 621 580 591 186 587 583 0 0 -15 621 148 0 533 622 0 17 580 0
 621 533 619 153 188 488 0 0 +17 591 0 621 619 533 189 623 535 0 0 +17 533 0 621
 591 580 150 155 531 0 624 +17 623 0 625 158 195 150 591 535 0 0 -15 625 152 0 1
58 626 0 17 158 0 625 559 623 156 152 489 0 627 +17 195 0 625 623 192 189 589 53
4 0 587 -17 192 0 625 195 559 190 592 562 0 585 -17 589 0 618 599 587 190 195 53
4 0 593 +17 559 0 625 192 158 165 628 541 0 629 +17 628 0 630 546 629 156 559 54
1 0 0 -17 629 0 630 628 164 165 556 554 0 592 -15 630 107 0 546 631 0 17 164 0 6
30 629 546 162 553 484 0 568 -17 556 0 632 611 167 162 629 554 0 614 +15 632 124
 0 611 633 0 17 611 0 632 634 556 175 568 557 0 565 -17 167 0 632 556 634 165 57
1 569 0 559 -17 634 0 632 167 611 171 565 547 0 423 -17 571 0 594 427 592 171 16
7 569 0 634 +17 565 0 635 174 178 175 634 547 0 609 +15 635 114 0 636 637 0 17 1
74 0 635 636 565 172 180 435 0 561 -17 178 0 635 565 636 171 170 424 0 571 -17 6
36 0 635 178 174 168 561 439 0 638 -17 170 0 417 203 423 168 178 424 0 636 +17 2
03 0 417 207 170 201 638 441 0 438 +17 207 0 417 420 203 205 639 421 0 447 +17 6
38 0 640 561 438 168 203 441 0 0 -17 438 0 640 638 200 201 641 436 0 639 +15 640
 163 0 561 642 0 17 200 0 640 438 561 198 433 431 0 641 -17 641 0 643 210 639 19
8 438 436 0 446 -17 639 0 643 641 447 201 207 421 0 0 -15 643 170 0 639 644 0 17
 447 0 643 639 210 205 645 440 0 646 +17 210 0 643 447 641 204 446 369 0 645 -17
 645 0 647 216 646 204 447 440 0 451 -17 646 0 647 645 213 205 420 418 0 0 -15 6
47 177 0 646 648 0 17 213 0 647 646 216 211 452 351 0 420 -17 420 0 417 218 207
 211 646 418 0 453 +17 218 0 417 413 420 214 453 355 0 354 -17 354 0 455 453 350
 214 391 352 0 415 +15 455 199 0 452 649 0 17 350 0 455 354 452 228 650 348 0 39
2 +17 391 0 388 324 389 228 354 352 0 350 -17 452 0 455 350 453 208 213 351 0 65
0 +17 650 0 607 451 230 208 350 348 0 0 -17 451 0 607 446 650 204 216 362 0 0 +1
7 230 0 607 650 239 228 395 359 0 391 +17 239 0 607 230 236 237 329 318 0 396 -1
7 395 0 393 312 392 237 230 359 0 317 -17 317 0 328 329 221 237 335 315 0 0 +15
 328 276 0 317 651 0 17 329 0 328 326 317 234 239 318 0 330 +14 651 275 652 ?604
 416 328 59 653 +0 0 604 416 77 81 1 652 414 654 651 655 0 656 657 658 14 604 27
8 657 ?71 651 601 59 72 +0 0 71 651 77 14 416 273 656 ?651 390 414 59 659 +0 0 6
51 390 77 50 653 464 0 651 659 72 0 +.125 .055 0 1 0 0 0 .707106781186548 .70710
6781186548 13 77 3 0 0 0 0 0 0 63 69 14 69 5 660 ?661 0 84 59 662 -0 0 661 0 77
 81 1 660 285 654 69 663 0 0 664 665 14 661 12 664 ?666 69 667 59 668 -0 0 666 6
9 77 15 84 6 0 81 69 669 51 662 421 0 69 0 668 0 +.045 .2176603149228885 -.015 0
 -1 0 .0025 1 0 0 51 668 422 0 661 662 670 0 +.025 .015 -.2146603149228885 0 0 1
 .0025 1 0 0 51 670 423 0 666 668 671 0 +.065 .015 -.2146603149228885 0 0 1 .002
5 1 0 0 14 666 19 672 ?673 661 674 59 670 -0 0 673 661 77 51 671 424 0 673 670 6
75 0 +.0606043251176446 .0862761419686952 -.2146603149228885 0 0 1 .0025 1 0 0 1
4 673 26 676 ?677 666 678 59 671 -0 0 677 666 77 51 675 425 0 677 671 679 0 +.10
39449165660142 .052414760825784 -.2146603149228885 0 0 1 .0025 1 0 0 14 677 33 6
80 ?681 673 682 59 675 -0 0 681 673 77 51 679 426 0 681 675 683 0 +-.20009900880
0492 .1316 .0826041008658424 .965925826289068 -459411655022865e-31 -.25881904510
25215 .0025 475617943447947e-31 1 0 14 681 40 684 ?685 677 686 59 679 -0 0 685 6
77 77 51 683 427 0 685 679 687 0 +.0481811521089981 -.1130603149228884 .05231229
85678282 -232573366624735e-31 1 -1798269087229685e-31 .0025 -1 -232573366624735e
-31 0 14 685 47 688 ?689 681 690 59 683 -0 0 689 681 77 50 687 428 0 689 683 691
 0 +.0665523251798719 .1016 .0629189002856263 .258819045102521 1787321820710335e
-31 .965925826289068 .694746590606866 .694746590606866 -.1861567878973855 14 689
 54 692 ?693 685 694 59 687 +0 0 693 685 77 50 691 429 0 693 687 695 0 +.0349905
2555872065 .1016 .0367456931944213 284906127412139e-32 1 -2056099115352515e-31 .
707106781186548 143373572178795e-30 .707106781186548 14 693 64 696 ?697 689 698
 59 691 -0 0 697 689 77 50 695 430 0 697 691 699 0 +.004415625438351825 .1016 .0
048882285676538 -238309576094712e-30 -185037170770859e-30 -1 .707106781186548 .7
07106781186548 -29935135550191e-29 14 697 72 700 ?701 693 702 59 695 +0 0 701 69
3 77 50 699 431 0 701 695 703 0 +.0510030535568056 .1016 .00488822856765379 .965
925826289068 -478911438473859e-31 -.258819045102521 .186156787897386 .6947465906
06866 .694746590606866 14 701 79 704 ?705 697 706 59 699 +0 0 705 697 77 50 703
 432 0 705 699 707 0 +.03499052555872065 .1046 .0367456931944213 -23257336662473
5e-31 1 -1798269087229685e-31 .707106781186548 143602247064199e-30 .707106781186
548 14 705 82 708 ?709 701 710 59 703 +0 0 709 701 77 50 707 433 0 709 703 711 0
 +.02163677425743025 .1051 .0749539858828935 .258819045102521 0 .965925826289068
 .694746590606866 .694746590606866 -.1861567878973855 14 709 86 712 ?713 705 714
 59 707 +0 0 713 705 77 51 711 434 0 713 707 715 0 +.0142509447192826 .1051 .039
66228818017115 -.258819045102521 0 -.965925826289068 .000499999999999973 -.96592
5826289068 1015061051085864e-29 .258819045102521 14 713 93 716 ?717 709 718 59 7
11 -0 0 717 709 77 50 715 435 0 717 711 719 0 +.003001411875978745 .1051 .005405
86665785883 -.258819045102521 0 -.965925826289068 .694746590606866 .694746590606
866 -.1861567878973855 14 717 98 720 ?721 713 722 59 715 +0 0 721 713 77 51 719
 436 0 721 715 723 0 +.0142509447192826 .1051 .03966228818017115 .25881904510252
1 0 .965925826289068 .0035 -.965925826289068 1015061051085864e-29 .2588190451025
21 14 721 103 724 ?631 717 725 59 719 +0 0 631 717 77 50 723 437 0 631 719 726 0
 +.00441562543835182 .1051 .00488822856765381 0 1 0 .707106781186548 0 .70710678
1186548 14 631 106 727 ?637 721 630 59 723 -0 0 637 721 77 50 726 438 0 637 723
 728 0 +.00586451417778543 .1051 .003 1 0 -259052039079203e-29 183177453513107e-
29 .707106781186548 .707106781186548 14 637 113 729 ?633 631 635 59 726 -0 0 633
 631 77 50 728 439 0 633 726 730 0 +.003735713864218045 .1051 .00286651406738169
5 474443607166711e-43 1 1176783236957842e-44 .707106781186548 -4186934326021425e
-44 .707106781186548 14 633 123 731 ?613 637 632 59 728 -0 0 613 637 77 51 730 4
40 0 613 728 732 0 +.00586451417778543 .1241 .0045 0 1 0 .0045 -222044604925031e
-29 0 -1 14 613 127 733 ?617 633 612 59 730 +0 0 617 633 77 50 732 441 0 617 730
 734 0 +.01009394275899832 .1241 .03767110722527365 .965925826289068 -3612386137
40953e-31 -.258819045102521 .1861567878973855 .694746590606866 .694746590606866
 14 617 134 735 ?620 613 736 59 732 -0 0 620 613 77 50 734 442 0 620 732 737 0 +
.02018788551799665 .1466 .0753422144505473 0 1 0 .707106781186548 0 .70710678118
6548 14 620 140 738 ?622 617 618 59 734 +0 0 622 617 77 50 737 443 0 622 734 739
 0 +.02018788551799665 .1016 .0753422144505473 .258819045102521 0 .9659258262890
68 .694746590606866 .694746590606866 -.1861567878973855 14 622 147 740 ?626 620
 621 59 737 +0 0 626 620 77 50 739 444 0 626 737 741 0 +.01299172023786552 .1241
 .0368946500899661 .965925826289068 -459411655022865e-31 -.2588190451025215 .186
156787897386 .694746590606866 .694746590606866 14 626 150 742 ?598 622 743 59 73
9 +0 0 598 622 77 50 741 445 0 598 739 744 0 +.00586451417778542 .1466 .0015 0 1
 0 .707106781186548 0 .707106781186548 14 598 154 745 ?596 626 597 59 741 +0 0 5
96 626 77 51 744 446 0 596 741 746 0 +.00586451417778543 .1241 .0045 0 -1 0 .001
5 -222044604925031e-29 0 -1 14 596 159 747 ?642 598 594 59 744 -0 0 642 598 77 5
0 746 447 0 642 744 748 0 +0 .1016 -555111512312578e-33 0 1 0 .707106781186548 0
 .707106781186548 14 642 162 749 ?644 596 640 59 746 -0 0 644 596 77 50 748 448
 0 644 746 750 0 +.00736451417778542 .1016 -555111512312578e-33 1 0 0 0 .7071067
81186548 .707106781186548 14 644 169 751 ?648 642 643 59 748 -0 0 648 642 77 50
 750 449 0 648 748 752 0 +.00736451417778542 .0986 -555111512312578e-33 0 -1 0 .
707106781186548 0 .707106781186548 14 648 176 753 ?600 644 647 59 750 -0 0 600 6
44 77 50 752 450 0 600 750 754 0 +.02530104561940995 .1173222146722808 .003 0 0
 1 .707106781186548 .707106781186548 0 14 600 183 755 ?649 648 756 59 752 +0 0 6
49 648 77 50 754 451 0 649 752 757 0 +0 .1016 0 -1 0 0 0 .707106781186548 .70710
6781186548 14 649 198 758 ?608 600 455 59 754 +0 0 608 600 77 50 757 452 0 608 7
54 759 0 +.02530104561940995 .1173222146722808 0 0 0 1 .707106781186548 .7071067
81186548 0 14 608 203 760 ?409 649 459 59 757 -0 0 409 649 77 50 759 453 0 409 7
57 761 0 +.125 0 0 -1 0 0 0 .707106781186548 .707106781186548 14 409 216 762 ?40
5 608 406 59 759 -0 0 405 608 77 50 761 454 0 405 759 763 0 +.125 0 -.003 0 0 -1
 .707106781186548 .707106781186548 0 14 405 226 764 ?398 409 403 59 761 -0 0 398
 409 77 50 763 455 0 398 761 765 0 +.0628806263715051 .003 -.0125 0 1 0 .7071067
81186548 0 .707106781186548 14 398 233 766 ?402 405 767 59 763 +0 0 402 405 77 5
0 765 456 0 402 763 768 0 +.1257612527430102 0 -.025 1 0 0 0 .707106781186548 .7
07106781186548 14 402 243 769 ?291 398 401 59 765 +0 0 291 398 77 50 768 457 0 2
91 765 770 0 +0 0 0 -1 0 0 0 .707106781186548 .707106781186548 14 291 248 771 ?2
99 402 284 59 768 +0 0 299 402 77 50 770 458 0 299 768 772 0 +0 0 -.025 0 0 -1 .
707106781186548 .707106781186548 0 14 299 255 773 ?280 291 294 59 770 +0 0 280 2
91 77 50 772 459 0 280 770 774 0 +.0628806263715051 0 -.0125 0 1 0 .707106781186
548 0 .707106781186548 14 280 258 775 ?411 299 776 59 772 -0 0 411 299 77 50 774
 460 0 411 772 777 0 +.125 .0045 .0015 1 0 0 0 .707106781186548 .707106781186548
 14 411 262 778 ?394 280 410 59 774 +0 0 394 280 77 51 777 461 0 394 774 779 0 +
.0625 .0045 -.0015 -1 0 0 .0015 0 -1233581138472396e-31 1 14 394 267 780 ?390 41
1 393 59 777 -0 0 390 411 77 50 779 462 0 390 777 659 0 +0 .0045 .0015 -1 0 0 0
 .707106781186548 .707106781186548 14 390 270 781 ?416 394 388 59 779 +0 0 416 3
94 77 51 659 463 0 416 779 653 0 +.0625 .0045 -.0015 1 0 0 .0045 0 -123358113847
2396e-31 1 81 1 781 408 654 390 782 0 780 656 783 80 1 654 784 785 8015 0 0 0 0
 3 5 0 0 0 FFFFTFFFFFFFFF2 81 2 782 407 784 390 786 781 787 788 789 790 81 1 780
 405 654 394 787 0 778 781 791 81 1 656 411 654 416 788 0 781 652 792 83 1 783 0
 81 2 788 410 784 416 793 656 782 655 794 795 83 1 792 0 80 2 784 796 797 8014 0
 0 0 0 3 5 0 0 0 FFFFTFFFFFFFFF2 1 81 1 793 409 798 416 0 788 786 799 800 81 2 6
55 413 784 651 799 652 788 801 802 803 83 4 794 0 0 .749019607843137 .7490196078
43137 82 1 795 15 81 1 799 412 798 651 0 655 793 804 805 81 2 801 416 784 604 80
4 657 655 806 807 808 83 4 802 0 0 .749019607843137 .749019607843137 82 1 803 15
 81 1 804 415 798 604 0 801 799 809 810 81 1 657 417 654 604 801 0 652 811 812 8
1 2 806 419 784 71 809 811 801 0 813 814 83 4 807 0 0 .749019607843137 .74901960
7843137 82 1 808 15 14 71 281 811 ?0 604 605 59 60 +0 0 0 604 77 81 1 809 418 79
8 71 0 806 804 0 815 81 1 811 420 654 71 806 0 657 0 816 83 4 813 0 0 .749019607
843137 .749019607843137 82 1 814 15 83 1 816 0 80 1 798 0 817 8001 0 0 0 0 3 5 0
 0 0 FFFFTFTFFFFFFF2 83 3 815 .5 .5 .5 79 15 817 SDL/TYSA_COLOUR83 1 812 0 83 3
 810 .5 .5 .5 83 3 805 .5 .5 .5 81 1 786 406 798 390 0 782 818 793 819 83 3 800
 .5 .5 .5 81 1 818 403 798 394 0 787 820 786 821 83 3 819 .5 .5 .5 81 2 787 404
 784 394 818 780 822 782 823 824 81 1 820 400 798 411 0 822 825 818 826 83 3 821
 .5 .5 .5 81 2 822 401 784 411 820 778 827 787 828 829 81 1 825 397 798 280 0 82
7 830 820 831 83 3 826 .5 .5 .5 81 2 827 398 784 280 825 775 832 822 833 834 81
 1 830 394 798 299 0 832 835 825 836 83 3 831 .5 .5 .5 81 2 832 395 784 299 830
 773 837 827 838 839 81 1 835 391 798 291 0 837 840 830 841 83 3 836 .5 .5 .5 81
 2 837 392 784 291 835 771 842 832 843 844 81 1 840 388 798 402 0 842 845 835 84
6 83 3 841 .5 .5 .5 81 2 842 389 784 402 840 769 847 837 848 849 81 1 845 385 79
8 398 0 847 850 840 851 83 3 846 .5 .5 .5 81 2 847 386 784 398 845 766 852 842 8
53 854 81 1 850 382 798 405 0 852 855 845 856 83 3 851 .5 .5 .5 81 2 852 383 784
 405 850 764 857 847 858 859 81 1 855 379 798 409 0 857 860 850 861 83 3 856 .5
 .5 .5 81 2 857 380 784 409 855 762 862 852 863 864 81 1 860 376 798 608 0 862 8
65 855 866 83 3 861 .5 .5 .5 81 2 862 377 784 608 860 760 867 857 868 869 81 1 8
65 373 798 649 0 867 870 860 871 83 3 866 .5 .5 .5 81 2 867 374 784 649 865 758
 872 862 873 874 81 1 870 370 798 600 0 872 875 865 876 83 3 871 .5 .5 .5 81 2 8
72 371 784 600 870 755 877 867 878 879 81 1 875 367 798 648 0 877 880 870 881 83
 3 876 .5 .5 .5 81 2 877 368 784 648 875 753 882 872 883 884 81 1 880 364 798 64
4 0 882 885 875 886 83 3 881 .5 .5 .5 81 2 882 365 784 644 880 751 887 877 888 8
89 81 1 885 361 798 642 0 887 890 880 891 83 3 886 .5 .5 .5 81 2 887 362 784 642
 885 749 892 882 893 894 81 1 890 358 798 596 0 892 895 885 896 83 3 891 .5 .5 .
5 81 2 892 359 784 596 890 747 897 887 898 899 81 1 895 355 798 598 0 897 900 89
0 901 83 3 896 .5 .5 .5 81 2 897 356 784 598 895 745 902 892 903 904 81 1 900 35
2 798 626 0 902 905 895 906 83 3 901 .5 .5 .5 81 2 902 353 784 626 900 742 907 8
97 908 909 81 1 905 349 798 622 0 907 910 900 911 83 3 906 .5 .5 .5 81 2 907 350
 784 622 905 740 912 902 913 914 81 1 910 346 798 620 0 912 915 905 916 83 3 911
 .5 .5 .5 81 2 912 347 784 620 910 738 917 907 918 919 81 1 915 343 798 617 0 91
7 920 910 921 83 3 916 .5 .5 .5 81 2 917 344 784 617 915 735 922 912 923 924 81
 1 920 340 798 613 0 922 925 915 926 83 3 921 .5 .5 .5 81 2 922 341 784 613 920
 733 927 917 928 929 81 1 925 337 798 633 0 927 930 920 931 83 3 926 .5 .5 .5 81
 2 927 338 784 633 925 731 932 922 933 934 81 1 930 334 798 637 0 932 935 925 93
6 83 3 931 .5 .5 .5 81 2 932 335 784 637 930 729 937 927 938 939 81 1 935 331 79
8 631 0 937 940 930 941 83 3 936 .5 .5 .5 81 2 937 332 784 631 935 727 942 932 9
43 944 81 1 940 328 798 721 0 942 945 935 946 83 3 941 .5 .5 .5 81 2 942 329 784
 721 940 724 947 937 948 949 81 1 945 325 798 717 0 947 950 940 951 83 3 946 .5
 .5 .5 81 2 947 326 784 717 945 720 952 942 953 954 81 1 950 322 798 713 0 952 9
55 945 956 83 3 951 .5 .5 .5 81 2 952 323 784 713 950 716 957 947 958 959 81 1 9
55 319 798 709 0 957 960 950 961 83 3 956 .5 .5 .5 81 2 957 320 784 709 955 712
 962 952 963 964 81 1 960 316 798 705 0 962 965 955 966 83 3 961 .5 .5 .5 81 2 9
62 317 784 705 960 708 967 957 968 969 81 1 965 313 798 701 0 967 970 960 971 83
 3 966 .5 .5 .5 81 2 967 314 784 701 965 704 972 962 973 974 81 1 970 310 798 69
7 0 972 975 965 976 83 3 971 .5 .5 .5 81 2 972 311 784 697 970 700 977 967 978 9
79 81 1 975 307 798 693 0 977 980 970 981 83 3 976 .5 .5 .5 81 2 977 308 784 693
 975 696 982 972 983 984 81 1 980 304 798 689 0 982 985 975 986 83 3 981 .5 .5 .
5 81 2 982 305 784 689 980 692 987 977 988 989 81 1 985 301 798 685 0 987 990 98
0 991 83 3 986 .5 .5 .5 81 2 987 302 784 685 985 688 992 982 993 994 81 1 990 29
8 798 681 0 992 995 985 996 83 3 991 .5 .5 .5 81 2 992 299 784 681 990 684 997 9
87 998 999 81 1 995 295 798 677 0 997 1000 990 1001 83 3 996 .5 .5 .5 81 2 997 2
96 784 677 995 680 1002 992 1003 1004 81 1 1000 292 798 673 0 1002 1005 995 1006
 83 3 1001 .5 .5 .5 81 2 1002 293 784 673 1000 676 1007 997 1008 1009 81 1 1005
 289 798 666 0 1007 1010 1000 1011 83 3 1006 .5 .5 .5 81 2 1007 290 784 666 1005
 672 1012 1002 1013 1014 81 1 1010 286 798 661 0 1012 1015 1005 1016 83 3 1011 .
5 .5 .5 81 2 1012 287 784 661 1010 664 663 1007 1017 1018 81 1 1015 283 798 69 0
 663 0 1010 1019 83 3 1016 .5 .5 .5 81 2 663 284 784 69 1015 660 0 1012 1020 102
1 83 3 1019 .5 .5 .5 83 4 1020 0 0 .749019607843137 .749019607843137 82 1 1021 1
5 81 1 664 288 654 661 1012 0 660 672 1022 83 4 1017 0 0 .749019607843137 .74901
9607843137 82 1 1018 15 81 1 672 291 654 666 1007 0 664 676 1023 83 1 1022 0 81
 1 676 294 654 673 1002 0 672 680 1024 83 1 1023 0 81 1 680 297 654 677 997 0 67
6 684 1025 83 1 1024 0 81 1 684 300 654 681 992 0 680 688 1026 83 1 1025 0 81 1
 688 303 654 685 987 0 684 692 1027 83 1 1026 0 81 1 692 306 654 689 982 0 688 6
96 1028 83 1 1027 0 81 1 696 309 654 693 977 0 692 700 1029 83 1 1028 0 81 1 700
 312 654 697 972 0 696 704 1030 83 1 1029 0 81 1 704 315 654 701 967 0 700 708 1
031 83 1 1030 0 81 1 708 318 654 705 962 0 704 712 1032 83 1 1031 0 81 1 712 321
 654 709 957 0 708 716 1033 83 1 1032 0 81 1 716 324 654 713 952 0 712 720 1034
 83 1 1033 0 81 1 720 327 654 717 947 0 716 724 1035 83 1 1034 0 81 1 724 330 65
4 721 942 0 720 727 1036 83 1 1035 0 81 1 727 333 654 631 937 0 724 729 1037 83
 1 1036 0 81 1 729 336 654 637 932 0 727 731 1038 83 1 1037 0 81 1 731 339 654 6
33 927 0 729 733 1039 83 1 1038 0 81 1 733 342 654 613 922 0 731 735 1040 83 1 1
039 0 81 1 735 345 654 617 917 0 733 738 1041 83 1 1040 0 81 1 738 348 654 620 9
12 0 735 740 1042 83 1 1041 0 81 1 740 351 654 622 907 0 738 742 1043 83 1 1042
 0 81 1 742 354 654 626 902 0 740 745 1044 83 1 1043 0 81 1 745 357 654 598 897
 0 742 747 1045 83 1 1044 0 81 1 747 360 654 596 892 0 745 749 1046 83 1 1045 0
 81 1 749 363 654 642 887 0 747 751 1047 83 1 1046 0 81 1 751 366 654 644 882 0
 749 753 1048 83 1 1047 0 81 1 753 369 654 648 877 0 751 755 1049 83 1 1048 0 81
 1 755 372 654 600 872 0 753 758 1050 83 1 1049 0 81 1 758 375 654 649 867 0 755
 760 1051 83 1 1050 0 81 1 760 378 654 608 862 0 758 762 1052 83 1 1051 0 81 1 7
62 381 654 409 857 0 760 764 1053 83 1 1052 0 81 1 764 384 654 405 852 0 762 766
 1054 83 1 1053 0 81 1 766 387 654 398 847 0 764 769 1055 83 1 1054 0 81 1 769 3
90 654 402 842 0 766 771 1056 83 1 1055 0 81 1 771 393 654 291 837 0 769 773 105
7 83 1 1056 0 81 1 773 396 654 299 832 0 771 775 1058 83 1 1057 0 81 1 775 399 6
54 280 827 0 773 778 1059 83 1 1058 0 81 1 778 402 654 411 822 0 775 780 1060 83
 1 1059 0 83 1 1060 0 83 4 1013 0 0 .749019607843137 .749019607843137 82 1 1014
 15 83 4 1008 0 0 .749019607843137 .749019607843137 82 1 1009 15 83 4 1003 0 0 .
749019607843137 .749019607843137 82 1 1004 15 83 4 998 0 0 .749019607843137 .749
019607843137 82 1 999 15 83 4 993 0 0 .749019607843137 .749019607843137 82 1 994
 15 83 4 988 0 0 .749019607843137 .749019607843137 82 1 989 15 83 4 983 0 0 .749
019607843137 .749019607843137 82 1 984 15 83 4 978 0 0 .749019607843137 .7490196
07843137 82 1 979 15 83 4 973 0 0 .749019607843137 .749019607843137 82 1 974 15
 83 4 968 0 0 .749019607843137 .749019607843137 82 1 969 15 83 4 963 0 0 .749019
607843137 .749019607843137 82 1 964 15 83 4 958 0 0 .749019607843137 .7490196078
43137 82 1 959 15 83 4 953 0 0 .749019607843137 .749019607843137 82 1 954 15 83
 4 948 0 0 .749019607843137 .749019607843137 82 1 949 15 83 4 943 0 0 .749019607
843137 .749019607843137 82 1 944 15 83 4 938 0 0 .749019607843137 .7490196078431
37 82 1 939 15 83 4 933 0 0 .749019607843137 .749019607843137 82 1 934 15 83 4 9
28 0 0 .749019607843137 .749019607843137 82 1 929 15 83 4 923 0 0 .7490196078431
37 .749019607843137 82 1 924 15 83 4 918 0 0 .749019607843137 .749019607843137 8
2 1 919 15 83 4 913 0 0 .749019607843137 .749019607843137 82 1 914 15 83 4 908 0
 0 .749019607843137 .749019607843137 82 1 909 15 83 4 903 0 0 .749019607843137 .
749019607843137 82 1 904 15 83 4 898 0 0 .749019607843137 .749019607843137 82 1
 899 15 83 4 893 0 0 .749019607843137 .749019607843137 82 1 894 15 83 4 888 0 0
 .749019607843137 .749019607843137 82 1 889 15 83 4 883 0 0 .749019607843137 .74
9019607843137 82 1 884 15 83 4 878 0 0 .749019607843137 .749019607843137 82 1 87
9 15 83 4 873 0 0 .749019607843137 .749019607843137 82 1 874 15 83 4 868 0 0 .74
9019607843137 .749019607843137 82 1 869 15 83 4 863 0 0 .749019607843137 .749019
607843137 82 1 864 15 83 4 858 0 0 .749019607843137 .749019607843137 82 1 859 15
 83 4 853 0 0 .749019607843137 .749019607843137 82 1 854 15 83 4 848 0 0 .749019
607843137 .749019607843137 82 1 849 15 83 4 843 0 0 .749019607843137 .7490196078
43137 82 1 844 15 83 4 838 0 0 .749019607843137 .749019607843137 82 1 839 15 83
 4 833 0 0 .749019607843137 .749019607843137 82 1 834 15 83 4 828 0 0 .749019607
843137 .749019607843137 82 1 829 15 83 4 823 0 0 .749019607843137 .7490196078431
37 82 1 824 15 79 21 797 SDL/TYSA_REFLECTIVITY83 1 791 0 83 4 789 0 0 .749019607
843137 .749019607843137 82 1 790 15 79 21 785 SDL/TYSA_TRANSLUCENCY15 776 259 0
 1061 280 271 17 1061 0 776 1061 1061 82 87 296 0 0 +17 87 0 669 87 87 82 1061 2
96 0 1061 -16 296 10 0 ?1061 290 286 463 0 0 10 15 669 9 0 87 69 0 15 767 234 0
 85 398 397 17 85 0 767 85 85 65 81 86 0 0 +16 86 7 0 ?85 366 370 465 0 0 10 31
 465 467 0 86 0 463 0 +.045 .003 -.015 0 -1 0 1 0 0 .0025 15 459 204 0 456 608 1
062 15 1062 205 0 460 608 1063 17 460 0 1062 460 460 96 98 457 0 0 +15 1063 206
 0 473 608 1064 17 473 0 1063 473 473 102 104 461 0 0 +15 1064 207 0 477 608 607
 17 477 0 1064 477 477 108 110 434 0 0 +17 110 0 682 110 110 108 477 434 0 477 -
15 682 34 0 110 677 1065 15 1065 37 0 113 677 0 17 113 0 1065 113 113 111 479 44
3 0 479 -17 479 0 1066 479 479 111 113 443 0 0 +15 1066 187 0 479 600 417 17 104
 0 678 104 104 102 473 461 0 473 -15 678 27 0 104 673 1067 15 1067 30 0 107 673
 0 17 107 0 1067 107 107 105 475 471 0 475 -17 475 0 1068 475 475 105 107 471 0
 0 +15 1068 186 0 475 600 1066 17 98 0 674 98 98 96 460 457 0 460 -15 674 20 0 9
8 666 1069 15 1069 23 0 101 666 0 17 101 0 1069 101 101 99 470 467 0 470 -17 470
 0 1070 470 470 99 101 467 0 0 +15 1070 185 0 470 600 1068 15 756 184 0 466 600
 1070 17 466 0 756 466 466 93 95 448 0 0 +17 95 0 1071 95 95 93 466 448 0 466 -1
5 1071 16 0 95 661 0 15 743 151 0 487 626 625 17 487 0 743 487 487 117 119 485 0
 0 +17 119 0 1072 119 119 117 487 485 0 487 -15 1072 44 0 119 681 0 15 736 135 0
 482 617 616 17 482 0 736 482 482 114 116 480 0 0 +17 116 0 686 116 116 114 482
 480 0 482 -15 686 41 0 116 681 1072 15 725 104 0 128 721 0 17 128 0 725 1073 54
3 126 140 507 0 1074 +17 1073 0 725 161 128 153 537 501 0 580 -17 543 0 725 128
 161 134 1075 510 0 0 +17 140 0 1076 1077 1078 134 128 507 0 519 -17 1074 0 694
 78 506 126 500 499 0 1078 -15 694 55 0 1074 689 0 17 78 0 694 504 1074 129 1078
 64 0 1079 +17 506 0 694 1074 504 130 138 493 0 530 +17 500 0 714 624 537 130 10
74 499 0 506 +17 1078 0 1076 140 1079 126 78 64 0 537 -15 1076 66 0 140 693 0 17
 1079 0 1076 1078 1077 129 143 515 0 0 -17 537 0 714 500 155 126 1073 501 0 0 +1
5 714 87 0 500 709 0 17 155 0 714 537 624 153 533 531 0 550 -17 624 0 714 155 50
0 150 530 520 0 623 -17 550 0 616 188 553 153 161 548 0 1073 +17 553 0 616 550 6
14 159 164 484 0 0 +17 161 0 725 543 1073 159 550 548 0 546 -17 546 0 630 164 62
8 159 627 544 0 1075 +17 627 0 722 539 1075 156 546 544 0 1080 -17 1075 0 722 62
7 519 159 543 510 0 553 -15 722 99 0 519 717 0 17 519 0 722 1075 539 134 146 517
 0 513 +17 539 0 722 519 627 144 1080 509 0 0 +17 146 0 702 522 513 144 519 517
 0 528 -17 513 0 702 146 1081 134 1077 511 0 543 +15 702 73 0 146 697 0 17 1081
 0 702 513 522 141 149 498 0 0 -17 1077 0 1076 1079 140 141 513 511 0 1081 -17 5
22 0 702 1081 146 147 1082 494 0 1083 +17 149 0 706 525 143 147 1081 498 0 522 +
15 706 80 0 525 701 0 17 525 0 706 136 149 133 1083 514 0 0 +17 143 0 706 149 13
6 141 1079 515 0 1077 +17 136 0 706 143 525 129 504 79 0 78 -17 504 0 694 506 78
 133 136 79 0 525 +17 1083 0 1084 1082 138 147 525 514 0 0 -15 1084 84 0 132 705
 0 17 1082 0 1084 132 1083 144 522 494 0 539 -17 138 0 1084 1083 132 133 506 493
 0 504 -17 132 0 1084 138 1082 130 528 526 0 500 -17 528 0 718 1080 530 144 132
 526 0 1082 +15 718 94 0 528 713 0 17 1080 0 718 152 528 156 539 509 0 628 -17 5
30 0 718 528 152 130 624 520 0 0 +17 152 0 718 530 1080 150 158 489 0 533 -15 71
0 83 0 497 705 1084 17 497 0 710 497 497 123 125 495 0 0 +17 125 0 1085 125 125
 123 497 495 0 497 -15 1085 51 0 125 685 0 15 698 65 0 492 693 1076 17 492 0 698
 492 492 120 122 490 0 0 +17 122 0 690 122 122 120 492 490 0 492 -15 690 48 0 12
2 685 1085 15 667 13 0 92 661 1071 17 92 0 667 92 92 88 456 454 0 456 -83 1 665
 0 50 72 465 0 604 653 60 0 +0 .1466 0 -22899026637976e-28 1 0 .707106781186548
 1619205701828425e-30 .707106781186548 83 1 658 0 17 446 0 607 433 451 198 210 3
69 0 0 +17 216 0 647 213 645 208 451 362 0 452 -17 433 0 607 180 446 172 200 431
 0 0 +17 561 0 640 200 638 172 636 439 0 433 +17 568 0 612 575 609 162 611 557 0
 556 +17 334 0 417 227 413 222 221 327 0 326 -17 252 0 397 374 246 247 407 370 0
 368 +19 70 1 0 10 0 63 59 S0 74 20 68 4 0 0 809 806 811 57 0 0 0 0 0 0 0 0 0 0
 0 0 0 0 0 0 80 1 66 1086 1087 8017 0 0 0 0 0 0 0 0 0 TTTTTTTTTTTTTF3 84 6 67 So
lid179 13 1087 SDL/TYSA_NAME13 53 3 0 9 0 0 0 56 55 0 29 54 4 0 56 0 0 0 .1016 0
 19 55 1 0 9 0 0 53 V0 18 56 2 0 0 0 0 54 ?53 70 47 0 4 T8 0 0 1 20 1 1088 1088
 13 48 3 0 8 0 0 1089 0 51 0 30 49 9 0 1089 0 0 0 +0 0 0 1 0 0 29 50 7 0 52 1090
 0 .125 0 0 19 51 1 0 8 0 0 48 V0 18 52 5 0 1091 0 1092 50 ?8 17 1091 0 0 0 0 52
 1093 1089 0 0 +18 1092 2 0 1093 52 0 1090 ?8 17 1093 0 0 0 0 1092 1091 1089 0 0
 -29 1090 4 0 1092 0 50 0 0 0 16 1089 6 1094 ?1091 0 0 49 0 0 48 81 1 1094 10 79
8 1089 0 0 0 0 1095 83 3 1095 0 0 .501960813999176 74 20 1088 1 0 0 1094 0 0 0 0
 0 0 0 0 0 0 0 0 0 0 0 0 0 0 0 70 41 0 4 T7 0 0 1 20 1 1096 1096 13 42 3 0 7 0 0
 1097 0 45 0 30 43 9 0 1097 0 0 0 +0 0 0 0 1 0 29 44 7 0 46 1098 0 0 .1016 0 19
 45 1 0 7 0 0 42 V0 18 46 5 0 1099 0 1100 44 ?7 17 1099 0 0 0 0 46 1101 1097 0 0
 +18 1100 2 0 1101 46 0 1098 ?7 17 1101 0 0 0 0 1100 1099 1097 0 0 -29 1098 4 0
 1100 0 44 0 0 0 16 1097 6 1102 ?1099 0 0 43 0 0 42 81 1 1102 10 798 1097 0 0 0
 0 1103 83 3 1103 0 0 .501960813999176 74 20 1096 1 0 0 1102 0 0 0 0 0 0 0 0 0 0
 0 0 0 0 0 0 0 0 0 70 35 0 4 T6 0 0 1 20 1 1104 1104 13 36 3 0 6 0 0 1105 0 39 0
 30 37 9 0 1105 0 0 0 +.125 0 0 0 1 0 29 38 7 0 40 1106 0 .125 .055 0 19 39 1 0
 6 0 0 36 V0 18 40 5 0 1107 0 1108 38 ?6 17 1107 0 0 0 0 40 1109 1105 0 0 +18 11
08 2 0 1109 40 0 1106 ?6 17 1109 0 0 0 0 1108 1107 1105 0 0 -29 1106 4 0 1108 0
 38 .125 0 0 16 1105 6 1110 ?1107 0 0 37 0 0 36 81 1 1110 10 798 1105 0 0 0 0 11
11 83 3 1111 0 0 .501960813999176 74 20 1104 1 0 0 1110 0 0 0 0 0 0 0 0 0 0 0 0
 0 0 0 0 0 0 0 70 29 0 4 T5 0 0 1 20 1 1112 1112 13 30 3 0 5 0 0 1113 0 33 0 30
 31 9 0 1113 0 0 0 +.125 .055 0 -.788010753606722 .615661475325658 0 29 32 7 0 3
4 1114 0 .0077573464911138 .1466 0 19 33 1 0 5 0 0 30 V0 18 34 5 0 1115 0 1116 3
2 ?5 17 1115 0 0 0 0 34 1117 1113 0 0 +18 1116 2 0 1117 34 0 1114 ?5 17 1117 0 0
 0 0 1116 1115 1113 0 0 -29 1114 4 0 1116 0 32 .125 .055 0 16 1113 6 1118 ?1115
 0 0 31 0 0 30 81 1 1118 10 798 1113 0 0 0 0 1119 83 3 1119 0 0 .501960813999176
 74 20 1112 1 0 0 1118 0 0 0 0 0 0 0 0 0 0 0 0 0 0 0 0 0 0 0 70 23 0 4 T4 0 0 1
 20 1 1120 1120 13 24 3 0 4 0 0 1121 0 27 0 30 25 9 0 1121 0 0 0 +0 .1016 0 0 1
 0 29 26 7 0 28 1122 0 0 .1466 0 19 27 1 0 4 0 0 24 V0 18 28 5 0 1123 0 1124 26
 ?4 17 1123 0 0 0 0 28 1125 1121 0 0 +18 1124 2 0 1125 28 0 1122 ?4 17 1125 0 0
 0 0 1124 1123 1121 0 0 -29 1122 4 0 1124 0 26 0 .1016 0 16 1121 6 1126 ?1123 0
 0 25 0 0 24 81 1 1126 10 798 1121 0 0 0 0 1127 83 3 1127 0 0 .501960813999176 7
4 20 1120 1 0 0 1126 0 0 0 0 0 0 0 0 0 0 0 0 0 0 0 0 0 0 0 70 17 0 4 T3 0 0 1 20
 1 1128 1128 13 18 3 0 3 0 0 1129 0 21 0 30 19 9 0 1129 0 0 0 +0 .1016 0 1 0 0 2
9 20 7 0 22 1130 0 .0653547199398025 .1016 0 19 21 1 0 3 0 0 18 V0 18 22 5 0 113
1 0 1132 20 ?3 17 1131 0 0 0 0 22 1133 1129 0 0 +18 1132 2 0 1133 22 0 1130 ?3 1
7 1133 0 0 0 0 1132 1131 1129 0 0 -29 1130 4 0 1132 0 20 0 .1016 0 16 1129 6 113
4 ?1131 0 0 19 0 0 18 81 1 1134 10 798 1129 0 0 0 0 1135 83 3 1135 0 0 .50196081
3999176 74 20 1128 1 0 0 1134 0 0 0 0 0 0 0 0 0 0 0 0 0 0 0 0 0 0 0 70 11 0 4 T2
 0 0 1 20 1 1136 1136 13 12 3 0 2 0 0 1137 0 15 0 30 13 9 0 1137 0 0 0 +0 .1466
 0 1 22899026637976e-28 0 29 14 7 0 16 1138 0 .00775734649111382 .1466 0 19 15 1
 0 2 0 0 12 V0 18 16 5 0 1139 0 1140 14 ?2 17 1139 0 0 0 0 16 1141 1137 0 0 +18
 1140 2 0 1141 16 0 1138 ?2 17 1141 0 0 0 0 1140 1139 1137 0 0 -29 1138 4 0 1140
 0 14 0 .1466 0 16 1137 6 1142 ?1139 0 0 13 0 0 12 81 1 1142 10 798 1137 0 0 0 0
 1143 83 3 1143 0 0 .501960813999176 74 20 1136 1 0 0 1142 0 0 0 0 0 0 0 0 0 0 0
 0 0 0 0 0 0 0 0 1 0 
